<?xml version="1.0" encoding="utf-8" standalone="no"?>
<!DOCTYPE svg PUBLIC "-//W3C//DTD SVG 1.1//EN"
  "http://www.w3.org/Graphics/SVG/1.1/DTD/svg11.dtd">
<svg xmlns:xlink="http://www.w3.org/1999/xlink" width="712.623437pt" height="423.663187pt" viewBox="0 0 712.623437 423.663187" xmlns="http://www.w3.org/2000/svg" version="1.1">
 <metadata>
  <rdf:RDF xmlns:dc="http://purl.org/dc/elements/1.1/" xmlns:cc="http://creativecommons.org/ns#" xmlns:rdf="http://www.w3.org/1999/02/22-rdf-syntax-ns#">
   <cc:Work>
    <dc:type rdf:resource="http://purl.org/dc/dcmitype/StillImage"/>
    <dc:date>2026-02-02T13:49:09.635081</dc:date>
    <dc:format>image/svg+xml</dc:format>
    <dc:creator>
     <cc:Agent>
      <dc:title>Matplotlib v3.10.8, https://matplotlib.org/</dc:title>
     </cc:Agent>
    </dc:creator>
   </cc:Work>
  </rdf:RDF>
 </metadata>
 <defs>
  <style type="text/css">*{stroke-linejoin: round; stroke-linecap: butt}</style>
 </defs>
 <g id="figure_1">
  <g id="patch_1">
   <path d="M 0 423.663187 
L 712.623437 423.663187 
L 712.623437 0 
L 0 0 
z
" style="fill: #ffffff"/>
  </g>
  <g id="axes_1">
   <g id="patch_2">
    <path d="M 45.285938 384.43975 
L 697.923437 384.43975 
L 697.923437 48.975 
L 45.285938 48.975 
z
" style="fill: #ffffff"/>
   </g>
   <g id="FillBetweenPolyCollection_1">
    <defs>
     <path id="mf9000bf504" d="M 45.285938 -262.843328 
L 45.285938 -54.471835 
L 48.565523 -54.471835 
L 51.845108 -54.471835 
L 55.124694 -54.471835 
L 58.404279 -54.471835 
L 61.683865 -54.471835 
L 64.96345 -54.471835 
L 68.243035 -54.471835 
L 71.522621 -54.471835 
L 74.802206 -54.471835 
L 78.081792 -54.471835 
L 81.361377 -54.471835 
L 84.640963 -54.471835 
L 87.920548 -54.471835 
L 91.200133 -54.471835 
L 94.479719 -54.471835 
L 97.759304 -54.471835 
L 101.03889 -54.471835 
L 104.318475 -54.471835 
L 107.598061 -54.471835 
L 110.877646 -54.471835 
L 114.157231 -54.471835 
L 117.436817 -54.471835 
L 120.716402 -54.471835 
L 123.995988 -54.471835 
L 127.275573 -54.471835 
L 130.555159 -54.471835 
L 133.834744 -54.471835 
L 137.114329 -54.471835 
L 140.393915 -54.471835 
L 143.6735 -54.471835 
L 146.953086 -54.471835 
L 150.232671 -54.471835 
L 153.512257 -54.471835 
L 156.791842 -54.471835 
L 160.071427 -54.471835 
L 163.351013 -54.471835 
L 166.630598 -54.471835 
L 169.910184 -54.471835 
L 173.189769 -54.471835 
L 176.469355 -54.471835 
L 179.74894 -54.471835 
L 183.028525 -54.471835 
L 186.308111 -54.471835 
L 189.587696 -54.471835 
L 192.867282 -54.471835 
L 196.146867 -54.471835 
L 199.426453 -54.471835 
L 202.706038 -54.471835 
L 205.985623 -54.471835 
L 209.265209 -54.471835 
L 212.544794 -54.471835 
L 215.82438 -54.471835 
L 219.103965 -54.471835 
L 222.383551 -54.471835 
L 225.663136 -54.471835 
L 228.942721 -54.471835 
L 232.222307 -54.471835 
L 235.501892 -54.471835 
L 238.781478 -54.471835 
L 242.061063 -54.471835 
L 245.340649 -54.471835 
L 248.620234 -54.471835 
L 251.899819 -54.471835 
L 255.179405 -54.471835 
L 258.45899 -54.471835 
L 261.738576 -54.471835 
L 265.018161 -54.471835 
L 268.297747 -54.471835 
L 271.577332 -54.471835 
L 274.856917 -54.471835 
L 278.136503 -54.471835 
L 281.416088 -54.471835 
L 284.695674 -54.471835 
L 287.975259 -54.471835 
L 291.254845 -54.471835 
L 294.53443 -54.471835 
L 297.814015 -54.471835 
L 301.093601 -54.471835 
L 304.373186 -54.471835 
L 307.652772 -54.471835 
L 310.932357 -54.471835 
L 314.211943 -54.471835 
L 317.491528 -54.471835 
L 320.771113 -54.471835 
L 324.050699 -54.471835 
L 327.330284 -54.471835 
L 330.60987 -54.471835 
L 333.889455 -54.471835 
L 337.169041 -54.471835 
L 340.448626 -54.471835 
L 343.728211 -54.471835 
L 347.007797 -54.471835 
L 350.287382 -54.471835 
L 353.566968 -54.471835 
L 356.846553 -54.471835 
L 360.126139 -54.471835 
L 363.405724 -54.471835 
L 366.685309 -54.471835 
L 369.964895 -54.471835 
L 373.24448 -54.471835 
L 376.524066 -54.471835 
L 379.803651 -54.471835 
L 383.083236 -54.471835 
L 386.362822 -54.471835 
L 389.642407 -54.471835 
L 392.921993 -54.471835 
L 396.201578 -54.471835 
L 399.481164 -54.471835 
L 402.760749 -54.471835 
L 406.040334 -54.471835 
L 409.31992 -54.471835 
L 412.599505 -54.471835 
L 415.879091 -54.471835 
L 419.158676 -54.471835 
L 422.438262 -54.471835 
L 425.717847 -54.471835 
L 428.997432 -54.471835 
L 432.277018 -54.471835 
L 435.556603 -54.471835 
L 438.836189 -54.471835 
L 442.115774 -54.471835 
L 445.39536 -54.471835 
L 448.674945 -54.471835 
L 451.95453 -54.471835 
L 455.234116 -54.471835 
L 458.513701 -54.471835 
L 461.793287 -54.471835 
L 465.072872 -54.471835 
L 468.352458 -54.471835 
L 471.632043 -54.471835 
L 474.911628 -54.471835 
L 478.191214 -54.471835 
L 481.470799 -54.471835 
L 484.750385 -54.471835 
L 488.02997 -54.471835 
L 491.309556 -54.471835 
L 494.589141 -54.471835 
L 497.868726 -54.471835 
L 501.148312 -54.471835 
L 504.427897 -54.471835 
L 507.707483 -54.471835 
L 510.987068 -54.471835 
L 514.266654 -54.471835 
L 517.546239 -54.471835 
L 520.825824 -54.471835 
L 524.10541 -54.471835 
L 527.384995 -54.471835 
L 530.664581 -54.471835 
L 533.944166 -54.471835 
L 537.223752 -54.471835 
L 540.503337 -54.471835 
L 543.782922 -54.471835 
L 547.062508 -54.471835 
L 550.342093 -54.471835 
L 553.621679 -54.471835 
L 556.901264 -54.471835 
L 560.18085 -54.471835 
L 563.460435 -54.471835 
L 566.74002 -54.471835 
L 570.019606 -54.471835 
L 573.299191 -54.471835 
L 576.578777 -54.471835 
L 579.858362 -54.471835 
L 583.137948 -54.471835 
L 586.417533 -54.471835 
L 589.697118 -54.471835 
L 592.976704 -54.471835 
L 596.256289 -54.471835 
L 599.535875 -54.471835 
L 602.81546 -54.471835 
L 606.095046 -54.471835 
L 609.374631 -54.471835 
L 612.654216 -54.471835 
L 615.933802 -54.471835 
L 619.213387 -54.471835 
L 622.492973 -54.471835 
L 625.772558 -54.471835 
L 629.052144 -54.471835 
L 632.331729 -54.471835 
L 635.611314 -54.471835 
L 638.8909 -54.471835 
L 642.170485 -54.471835 
L 645.450071 -54.471835 
L 648.729656 -54.471835 
L 652.009242 -54.471835 
L 655.288827 -54.471835 
L 658.568412 -54.471835 
L 661.847998 -54.471835 
L 665.127583 -54.471835 
L 668.407169 -54.471835 
L 671.686754 -54.471835 
L 674.96634 -54.471835 
L 678.245925 -54.471835 
L 681.52551 -54.471835 
L 684.805096 -54.471835 
L 688.084681 -54.471835 
L 691.364267 -54.471835 
L 694.643852 -54.471835 
L 697.923437 -54.471835 
L 697.923437 -61.10931 
L 697.923437 -61.10931 
L 694.643852 -61.878941 
L 691.364267 -62.721681 
L 688.084681 -63.642433 
L 684.805096 -64.646177 
L 681.52551 -65.737944 
L 678.245925 -66.922771 
L 674.96634 -68.205666 
L 671.686754 -69.591558 
L 668.407169 -71.085252 
L 665.127583 -72.691369 
L 661.847998 -74.414297 
L 658.568412 -76.258125 
L 655.288827 -78.226585 
L 652.009242 -80.322986 
L 648.729656 -82.55015 
L 645.450071 -84.910347 
L 642.170485 -87.405235 
L 638.8909 -90.035792 
L 635.611314 -92.802264 
L 632.331729 -95.704106 
L 629.052144 -98.739938 
L 625.772558 -101.907498 
L 622.492973 -105.203607 
L 619.213387 -108.624149 
L 615.933802 -112.164045 
L 612.654216 -115.817254 
L 609.374631 -119.576773 
L 606.095046 -123.434654 
L 602.81546 -127.38203 
L 599.535875 -131.409158 
L 596.256289 -135.505465 
L 592.976704 -139.659616 
L 589.697118 -143.859583 
L 586.417533 -148.092734 
L 583.137948 -152.345923 
L 579.858362 -156.605594 
L 576.578777 -160.857892 
L 573.299191 -165.088778 
L 570.019606 -169.284148 
L 566.74002 -173.429956 
L 563.460435 -177.512339 
L 560.18085 -181.517742 
L 556.901264 -185.433038 
L 553.621679 -189.245644 
L 550.342093 -192.943636 
L 547.062508 -196.515853 
L 543.782922 -199.951994 
L 540.503337 -203.242703 
L 537.223752 -206.379647 
L 533.944166 -209.355579 
L 530.664581 -212.164386 
L 527.384995 -214.801134 
L 524.10541 -217.262083 
L 520.825824 -219.544702 
L 517.546239 -221.647663 
L 514.266654 -223.570823 
L 510.987068 -225.315192 
L 507.707483 -226.882886 
L 504.427897 -228.277074 
L 501.148312 -229.501908 
L 497.868726 -230.562446 
L 494.589141 -231.464562 
L 491.309556 -232.21486 
L 488.02997 -232.820565 
L 484.750385 -233.289427 
L 481.470799 -233.629611 
L 478.191214 -233.849592 
L 474.911628 -233.958051 
L 471.632043 -233.963767 
L 468.352458 -233.875527 
L 465.072872 -233.702026 
L 461.793287 -233.451787 
L 458.513701 -233.133084 
L 455.234116 -232.753874 
L 451.95453 -232.321747 
L 448.674945 -231.843877 
L 445.39536 -231.326993 
L 442.115774 -230.77736 
L 438.836189 -230.200774 
L 435.556603 -229.602563 
L 432.277018 -228.98761 
L 428.997432 -228.360376 
L 425.717847 -227.724939 
L 422.438262 -227.085041 
L 419.158676 -226.44414 
L 415.879091 -225.80547 
L 412.599505 -225.172102 
L 409.31992 -224.547009 
L 406.040334 -223.933131 
L 402.760749 -223.333439 
L 399.481164 -222.750992 
L 396.201578 -222.188992 
L 392.921993 -221.650834 
L 389.642407 -221.140142 
L 386.362822 -220.660797 
L 383.083236 -220.216962 
L 379.803651 -219.813083 
L 376.524066 -219.453886 
L 373.24448 -219.144365 
L 369.964895 -218.889747 
L 366.685309 -218.695454 
L 363.405724 -218.567055 
L 360.126139 -218.510198 
L 356.846553 -218.530549 
L 353.566968 -218.633706 
L 350.287382 -218.825122 
L 347.007797 -219.110014 
L 343.728211 -219.493282 
L 340.448626 -219.97941 
L 337.169041 -220.572389 
L 333.889455 -221.275632 
L 330.60987 -222.091901 
L 327.330284 -223.023234 
L 324.050699 -224.070897 
L 320.771113 -225.235332 
L 317.491528 -226.516127 
L 314.211943 -227.911997 
L 310.932357 -229.42078 
L 307.652772 -231.039447 
L 304.373186 -232.76413 
L 301.093601 -234.590162 
L 297.814015 -236.512131 
L 294.53443 -238.523954 
L 291.254845 -240.618952 
L 287.975259 -242.789948 
L 284.695674 -245.02937 
L 281.416088 -247.329356 
L 278.136503 -249.681875 
L 274.856917 -252.078848 
L 271.577332 -254.512263 
L 268.297747 -256.974302 
L 265.018161 -259.457455 
L 261.738576 -261.954635 
L 258.45899 -264.459283 
L 255.179405 -266.965461 
L 251.899819 -269.46794 
L 248.620234 -271.96227 
L 245.340649 -274.444835 
L 242.061063 -276.912895 
L 238.781478 -279.364608 
L 235.501892 -281.799036 
L 232.222307 -284.216125 
L 228.942721 -286.616677 
L 225.663136 -289.002291 
L 222.383551 -291.375292 
L 219.103965 -293.738635 
L 215.82438 -296.095798 
L 212.544794 -298.450648 
L 209.265209 -300.807301 
L 205.985623 -303.169961 
L 202.706038 -305.54275 
L 199.426453 -307.92953 
L 196.146867 -310.333712 
L 192.867282 -312.758069 
L 189.587696 -315.204543 
L 186.308111 -317.674057 
L 183.028525 -320.166336 
L 179.74894 -322.679728 
L 176.469355 -325.211055 
L 173.189769 -327.755467 
L 169.910184 -330.306327 
L 166.630598 -332.855113 
L 163.351013 -335.391358 
L 160.071427 -337.902611 
L 156.791842 -340.374434 
L 153.512257 -342.790443 
L 150.232671 -345.132371 
L 146.953086 -347.380181 
L 143.6735 -349.512209 
L 140.393915 -351.505348 
L 137.114329 -353.335268 
L 133.834744 -354.976664 
L 130.555159 -356.403542 
L 127.275573 -357.589529 
L 123.995988 -358.508202 
L 120.716402 -359.13344 
L 117.436817 -359.43979 
L 114.157231 -359.402831 
L 110.877646 -358.999548 
L 107.598061 -358.208695 
L 104.318475 -357.011145 
L 101.03889 -355.390223 
L 97.759304 -353.332014 
L 94.479719 -350.825637 
L 91.200133 -347.863486 
L 87.920548 -344.441427 
L 84.640963 -340.558949 
L 81.361377 -336.219264 
L 78.081792 -331.429363 
L 74.802206 -326.200008 
L 71.522621 -320.545678 
L 68.243035 -314.484459 
L 64.96345 -308.037881 
L 61.683865 -301.230708 
L 58.404279 -294.090681 
L 55.124694 -286.648217 
L 51.845108 -278.936079 
L 48.565523 -270.989007 
L 45.285938 -262.843328 
z
" style="stroke: #4682b4; stroke-opacity: 0.3"/>
    </defs>
    <g clip-path="url(#pb9f0f61fd9)">
     <use xlink:href="#mf9000bf504" x="0" y="423.663187" style="fill: #4682b4; fill-opacity: 0.3; stroke: #4682b4; stroke-opacity: 0.3"/>
    </g>
   </g>
   <g id="FillBetweenPolyCollection_2">
    <defs>
     <path id="me4a977687b" d="M 45.285938 -262.843328 
L 45.285938 -54.471835 
L 48.565523 -54.471835 
L 51.845108 -54.471835 
L 55.124694 -54.471835 
L 58.404279 -54.471835 
L 61.683865 -54.471835 
L 64.96345 -54.471835 
L 68.243035 -54.471835 
L 71.522621 -54.471835 
L 74.802206 -54.471835 
L 78.081792 -54.471835 
L 81.361377 -54.471835 
L 84.640963 -54.471835 
L 87.920548 -54.471835 
L 91.200133 -54.471835 
L 94.479719 -54.471835 
L 97.759304 -54.471835 
L 101.03889 -54.471835 
L 104.318475 -54.471835 
L 107.598061 -54.471835 
L 110.877646 -54.471835 
L 114.157231 -54.471835 
L 117.436817 -54.471835 
L 120.716402 -54.471835 
L 123.995988 -54.471835 
L 127.275573 -54.471835 
L 130.555159 -54.471835 
L 133.834744 -54.471835 
L 137.114329 -54.471835 
L 140.393915 -54.471835 
L 143.6735 -54.471835 
L 146.953086 -54.471835 
L 150.232671 -54.471835 
L 153.512257 -54.471835 
L 156.791842 -54.471835 
L 160.071427 -54.471835 
L 163.351013 -54.471835 
L 166.630598 -54.471835 
L 169.910184 -54.471835 
L 173.189769 -54.471835 
L 176.469355 -54.471835 
L 179.74894 -54.471835 
L 183.028525 -54.471835 
L 186.308111 -54.471835 
L 189.587696 -54.471835 
L 192.867282 -54.471835 
L 196.146867 -54.471835 
L 199.426453 -54.471835 
L 202.706038 -54.471835 
L 205.985623 -54.471835 
L 209.265209 -54.471835 
L 212.544794 -54.471835 
L 215.82438 -54.471835 
L 219.103965 -54.471835 
L 222.383551 -54.471835 
L 225.663136 -54.471835 
L 228.942721 -54.471835 
L 232.222307 -54.471835 
L 235.501892 -54.471835 
L 238.781478 -54.471835 
L 238.781478 -279.364608 
L 238.781478 -279.364608 
L 235.501892 -281.799036 
L 232.222307 -284.216125 
L 228.942721 -286.616677 
L 225.663136 -289.002291 
L 222.383551 -291.375292 
L 219.103965 -293.738635 
L 215.82438 -296.095798 
L 212.544794 -298.450648 
L 209.265209 -300.807301 
L 205.985623 -303.169961 
L 202.706038 -305.54275 
L 199.426453 -307.92953 
L 196.146867 -310.333712 
L 192.867282 -312.758069 
L 189.587696 -315.204543 
L 186.308111 -317.674057 
L 183.028525 -320.166336 
L 179.74894 -322.679728 
L 176.469355 -325.211055 
L 173.189769 -327.755467 
L 169.910184 -330.306327 
L 166.630598 -332.855113 
L 163.351013 -335.391358 
L 160.071427 -337.902611 
L 156.791842 -340.374434 
L 153.512257 -342.790443 
L 150.232671 -345.132371 
L 146.953086 -347.380181 
L 143.6735 -349.512209 
L 140.393915 -351.505348 
L 137.114329 -353.335268 
L 133.834744 -354.976664 
L 130.555159 -356.403542 
L 127.275573 -357.589529 
L 123.995988 -358.508202 
L 120.716402 -359.13344 
L 117.436817 -359.43979 
L 114.157231 -359.402831 
L 110.877646 -358.999548 
L 107.598061 -358.208695 
L 104.318475 -357.011145 
L 101.03889 -355.390223 
L 97.759304 -353.332014 
L 94.479719 -350.825637 
L 91.200133 -347.863486 
L 87.920548 -344.441427 
L 84.640963 -340.558949 
L 81.361377 -336.219264 
L 78.081792 -331.429363 
L 74.802206 -326.200008 
L 71.522621 -320.545678 
L 68.243035 -314.484459 
L 64.96345 -308.037881 
L 61.683865 -301.230708 
L 58.404279 -294.090681 
L 55.124694 -286.648217 
L 51.845108 -278.936079 
L 48.565523 -270.989007 
L 45.285938 -262.843328 
z
" style="stroke: #d3d3d3; stroke-opacity: 0.2"/>
    </defs>
    <g clip-path="url(#pb9f0f61fd9)">
     <use xlink:href="#me4a977687b" x="0" y="423.663187" style="fill: #d3d3d3; fill-opacity: 0.2; stroke: #d3d3d3; stroke-opacity: 0.2"/>
    </g>
   </g>
   <g id="FillBetweenPolyCollection_3">
    <defs>
     <path id="m372858550e" d="M 242.061063 -276.912895 
L 242.061063 -54.471835 
L 245.340649 -54.471835 
L 248.620234 -54.471835 
L 251.899819 -54.471835 
L 255.179405 -54.471835 
L 258.45899 -54.471835 
L 261.738576 -54.471835 
L 265.018161 -54.471835 
L 268.297747 -54.471835 
L 271.577332 -54.471835 
L 274.856917 -54.471835 
L 278.136503 -54.471835 
L 281.416088 -54.471835 
L 284.695674 -54.471835 
L 287.975259 -54.471835 
L 291.254845 -54.471835 
L 294.53443 -54.471835 
L 297.814015 -54.471835 
L 301.093601 -54.471835 
L 304.373186 -54.471835 
L 307.652772 -54.471835 
L 310.932357 -54.471835 
L 314.211943 -54.471835 
L 317.491528 -54.471835 
L 320.771113 -54.471835 
L 324.050699 -54.471835 
L 327.330284 -54.471835 
L 330.60987 -54.471835 
L 333.889455 -54.471835 
L 337.169041 -54.471835 
L 340.448626 -54.471835 
L 343.728211 -54.471835 
L 347.007797 -54.471835 
L 350.287382 -54.471835 
L 353.566968 -54.471835 
L 356.846553 -54.471835 
L 360.126139 -54.471835 
L 363.405724 -54.471835 
L 366.685309 -54.471835 
L 369.964895 -54.471835 
L 373.24448 -54.471835 
L 376.524066 -54.471835 
L 379.803651 -54.471835 
L 383.083236 -54.471835 
L 386.362822 -54.471835 
L 389.642407 -54.471835 
L 392.921993 -54.471835 
L 396.201578 -54.471835 
L 399.481164 -54.471835 
L 402.760749 -54.471835 
L 406.040334 -54.471835 
L 409.31992 -54.471835 
L 412.599505 -54.471835 
L 415.879091 -54.471835 
L 419.158676 -54.471835 
L 422.438262 -54.471835 
L 425.717847 -54.471835 
L 428.997432 -54.471835 
L 432.277018 -54.471835 
L 435.556603 -54.471835 
L 438.836189 -54.471835 
L 442.115774 -54.471835 
L 445.39536 -54.471835 
L 448.674945 -54.471835 
L 451.95453 -54.471835 
L 455.234116 -54.471835 
L 458.513701 -54.471835 
L 461.793287 -54.471835 
L 465.072872 -54.471835 
L 468.352458 -54.471835 
L 471.632043 -54.471835 
L 474.911628 -54.471835 
L 478.191214 -54.471835 
L 481.470799 -54.471835 
L 484.750385 -54.471835 
L 488.02997 -54.471835 
L 491.309556 -54.471835 
L 494.589141 -54.471835 
L 497.868726 -54.471835 
L 501.148312 -54.471835 
L 504.427897 -54.471835 
L 507.707483 -54.471835 
L 510.987068 -54.471835 
L 514.266654 -54.471835 
L 517.546239 -54.471835 
L 520.825824 -54.471835 
L 524.10541 -54.471835 
L 527.384995 -54.471835 
L 530.664581 -54.471835 
L 533.944166 -54.471835 
L 537.223752 -54.471835 
L 540.503337 -54.471835 
L 543.782922 -54.471835 
L 547.062508 -54.471835 
L 550.342093 -54.471835 
L 553.621679 -54.471835 
L 556.901264 -54.471835 
L 560.18085 -54.471835 
L 563.460435 -54.471835 
L 566.74002 -54.471835 
L 566.74002 -173.429956 
L 566.74002 -173.429956 
L 563.460435 -177.512339 
L 560.18085 -181.517742 
L 556.901264 -185.433038 
L 553.621679 -189.245644 
L 550.342093 -192.943636 
L 547.062508 -196.515853 
L 543.782922 -199.951994 
L 540.503337 -203.242703 
L 537.223752 -206.379647 
L 533.944166 -209.355579 
L 530.664581 -212.164386 
L 527.384995 -214.801134 
L 524.10541 -217.262083 
L 520.825824 -219.544702 
L 517.546239 -221.647663 
L 514.266654 -223.570823 
L 510.987068 -225.315192 
L 507.707483 -226.882886 
L 504.427897 -228.277074 
L 501.148312 -229.501908 
L 497.868726 -230.562446 
L 494.589141 -231.464562 
L 491.309556 -232.21486 
L 488.02997 -232.820565 
L 484.750385 -233.289427 
L 481.470799 -233.629611 
L 478.191214 -233.849592 
L 474.911628 -233.958051 
L 471.632043 -233.963767 
L 468.352458 -233.875527 
L 465.072872 -233.702026 
L 461.793287 -233.451787 
L 458.513701 -233.133084 
L 455.234116 -232.753874 
L 451.95453 -232.321747 
L 448.674945 -231.843877 
L 445.39536 -231.326993 
L 442.115774 -230.77736 
L 438.836189 -230.200774 
L 435.556603 -229.602563 
L 432.277018 -228.98761 
L 428.997432 -228.360376 
L 425.717847 -227.724939 
L 422.438262 -227.085041 
L 419.158676 -226.44414 
L 415.879091 -225.80547 
L 412.599505 -225.172102 
L 409.31992 -224.547009 
L 406.040334 -223.933131 
L 402.760749 -223.333439 
L 399.481164 -222.750992 
L 396.201578 -222.188992 
L 392.921993 -221.650834 
L 389.642407 -221.140142 
L 386.362822 -220.660797 
L 383.083236 -220.216962 
L 379.803651 -219.813083 
L 376.524066 -219.453886 
L 373.24448 -219.144365 
L 369.964895 -218.889747 
L 366.685309 -218.695454 
L 363.405724 -218.567055 
L 360.126139 -218.510198 
L 356.846553 -218.530549 
L 353.566968 -218.633706 
L 350.287382 -218.825122 
L 347.007797 -219.110014 
L 343.728211 -219.493282 
L 340.448626 -219.97941 
L 337.169041 -220.572389 
L 333.889455 -221.275632 
L 330.60987 -222.091901 
L 327.330284 -223.023234 
L 324.050699 -224.070897 
L 320.771113 -225.235332 
L 317.491528 -226.516127 
L 314.211943 -227.911997 
L 310.932357 -229.42078 
L 307.652772 -231.039447 
L 304.373186 -232.76413 
L 301.093601 -234.590162 
L 297.814015 -236.512131 
L 294.53443 -238.523954 
L 291.254845 -240.618952 
L 287.975259 -242.789948 
L 284.695674 -245.02937 
L 281.416088 -247.329356 
L 278.136503 -249.681875 
L 274.856917 -252.078848 
L 271.577332 -254.512263 
L 268.297747 -256.974302 
L 265.018161 -259.457455 
L 261.738576 -261.954635 
L 258.45899 -264.459283 
L 255.179405 -266.965461 
L 251.899819 -269.46794 
L 248.620234 -271.96227 
L 245.340649 -274.444835 
L 242.061063 -276.912895 
z
" style="stroke: #ffa500; stroke-opacity: 0.2"/>
    </defs>
    <g clip-path="url(#pb9f0f61fd9)">
     <use xlink:href="#m372858550e" x="0" y="423.663187" style="fill: #ffa500; fill-opacity: 0.2; stroke: #ffa500; stroke-opacity: 0.2"/>
    </g>
   </g>
   <g id="FillBetweenPolyCollection_4">
    <defs>
     <path id="m38838ab058" d="M 570.019606 -169.284148 
L 570.019606 -54.471835 
L 573.299191 -54.471835 
L 576.578777 -54.471835 
L 579.858362 -54.471835 
L 583.137948 -54.471835 
L 586.417533 -54.471835 
L 589.697118 -54.471835 
L 592.976704 -54.471835 
L 596.256289 -54.471835 
L 599.535875 -54.471835 
L 602.81546 -54.471835 
L 606.095046 -54.471835 
L 609.374631 -54.471835 
L 612.654216 -54.471835 
L 615.933802 -54.471835 
L 619.213387 -54.471835 
L 622.492973 -54.471835 
L 625.772558 -54.471835 
L 629.052144 -54.471835 
L 632.331729 -54.471835 
L 635.611314 -54.471835 
L 638.8909 -54.471835 
L 642.170485 -54.471835 
L 645.450071 -54.471835 
L 648.729656 -54.471835 
L 652.009242 -54.471835 
L 655.288827 -54.471835 
L 658.568412 -54.471835 
L 661.847998 -54.471835 
L 665.127583 -54.471835 
L 668.407169 -54.471835 
L 671.686754 -54.471835 
L 674.96634 -54.471835 
L 678.245925 -54.471835 
L 681.52551 -54.471835 
L 684.805096 -54.471835 
L 688.084681 -54.471835 
L 691.364267 -54.471835 
L 694.643852 -54.471835 
L 697.923437 -54.471835 
L 697.923437 -61.10931 
L 697.923437 -61.10931 
L 694.643852 -61.878941 
L 691.364267 -62.721681 
L 688.084681 -63.642433 
L 684.805096 -64.646177 
L 681.52551 -65.737944 
L 678.245925 -66.922771 
L 674.96634 -68.205666 
L 671.686754 -69.591558 
L 668.407169 -71.085252 
L 665.127583 -72.691369 
L 661.847998 -74.414297 
L 658.568412 -76.258125 
L 655.288827 -78.226585 
L 652.009242 -80.322986 
L 648.729656 -82.55015 
L 645.450071 -84.910347 
L 642.170485 -87.405235 
L 638.8909 -90.035792 
L 635.611314 -92.802264 
L 632.331729 -95.704106 
L 629.052144 -98.739938 
L 625.772558 -101.907498 
L 622.492973 -105.203607 
L 619.213387 -108.624149 
L 615.933802 -112.164045 
L 612.654216 -115.817254 
L 609.374631 -119.576773 
L 606.095046 -123.434654 
L 602.81546 -127.38203 
L 599.535875 -131.409158 
L 596.256289 -135.505465 
L 592.976704 -139.659616 
L 589.697118 -143.859583 
L 586.417533 -148.092734 
L 583.137948 -152.345923 
L 579.858362 -156.605594 
L 576.578777 -160.857892 
L 573.299191 -165.088778 
L 570.019606 -169.284148 
z
" style="stroke: #ff0000; stroke-opacity: 0.2"/>
    </defs>
    <g clip-path="url(#pb9f0f61fd9)">
     <use xlink:href="#m38838ab058" x="0" y="423.663187" style="fill: #ff0000; fill-opacity: 0.2; stroke: #ff0000; stroke-opacity: 0.2"/>
    </g>
   </g>
   <g id="matplotlib.axis_1">
    <g id="xtick_1">
     <g id="line2d_1">
      <path d="M 45.285938 384.43975 
L 45.285938 48.975 
" clip-path="url(#pb9f0f61fd9)" style="fill: none; stroke: #b0b0b0; stroke-opacity: 0.3; stroke-width: 0.8; stroke-linecap: square"/>
     </g>
     <g id="line2d_2">
      <defs>
       <path id="m874b83988d" d="M 0 0 
L 0 3.5 
" style="stroke: #000000; stroke-width: 0.8"/>
      </defs>
      <g>
       <use xlink:href="#m874b83988d" x="45.285938" y="384.43975" style="stroke: #000000; stroke-width: 0.8"/>
      </g>
     </g>
     <g id="text_1">
      <!-- 0.0 -->
      <g transform="translate(37.785938 398.31475) scale(0.1 -0.1)">
       <defs>
        <path id="SimHei-30" d="M 225 2537 
Q 250 3200 412 3587 
Q 575 3975 875 4225 
Q 1175 4475 1612 4475 
Q 2050 4475 2375 4112 
Q 2700 3750 2800 3200 
Q 2900 2650 2862 1937 
Q 2825 1225 2612 775 
Q 2400 325 1975 150 
Q 1550 -25 1125 187 
Q 700 400 525 750 
Q 350 1100 275 1487 
Q 200 1875 225 2537 
z
M 750 2687 
Q 675 2000 800 1462 
Q 925 925 1212 700 
Q 1500 475 1800 612 
Q 2100 750 2237 1162 
Q 2375 1575 2375 2062 
Q 2375 2550 2337 2950 
Q 2300 3350 2112 3675 
Q 1925 4000 1612 4012 
Q 1300 4025 1062 3700 
Q 825 3375 750 2687 
z
" transform="scale(0.015625)"/>
        <path id="SimHei-2e" d="M 1075 125 
L 500 125 
L 500 675 
L 1075 675 
L 1075 125 
z
" transform="scale(0.015625)"/>
       </defs>
       <use xlink:href="#SimHei-30"/>
       <use xlink:href="#SimHei-2e" transform="translate(50 0)"/>
       <use xlink:href="#SimHei-30" transform="translate(100 0)"/>
      </g>
     </g>
    </g>
    <g id="xtick_2">
     <g id="line2d_3">
      <path d="M 175.813438 384.43975 
L 175.813438 48.975 
" clip-path="url(#pb9f0f61fd9)" style="fill: none; stroke: #b0b0b0; stroke-opacity: 0.3; stroke-width: 0.8; stroke-linecap: square"/>
     </g>
     <g id="line2d_4">
      <g>
       <use xlink:href="#m874b83988d" x="175.813438" y="384.43975" style="stroke: #000000; stroke-width: 0.8"/>
      </g>
     </g>
     <g id="text_2">
      <!-- 0.2 -->
      <g transform="translate(168.313438 398.31475) scale(0.1 -0.1)">
       <defs>
        <path id="SimHei-32" d="M 300 250 
Q 325 625 650 925 
Q 975 1225 1475 1862 
Q 1975 2500 2125 2850 
Q 2275 3200 2237 3450 
Q 2200 3700 2000 3862 
Q 1800 4025 1537 4000 
Q 1275 3975 1037 3800 
Q 800 3625 675 3275 
L 200 3350 
Q 400 3925 712 4187 
Q 1025 4450 1450 4475 
Q 1700 4500 1900 4462 
Q 2100 4425 2312 4287 
Q 2525 4150 2662 3875 
Q 2800 3600 2762 3212 
Q 2725 2825 2375 2287 
Q 2025 1750 1025 600 
L 2825 600 
L 2825 150 
L 300 150 
L 300 250 
z
" transform="scale(0.015625)"/>
       </defs>
       <use xlink:href="#SimHei-30"/>
       <use xlink:href="#SimHei-2e" transform="translate(50 0)"/>
       <use xlink:href="#SimHei-32" transform="translate(100 0)"/>
      </g>
     </g>
    </g>
    <g id="xtick_3">
     <g id="line2d_5">
      <path d="M 306.340937 384.43975 
L 306.340937 48.975 
" clip-path="url(#pb9f0f61fd9)" style="fill: none; stroke: #b0b0b0; stroke-opacity: 0.3; stroke-width: 0.8; stroke-linecap: square"/>
     </g>
     <g id="line2d_6">
      <g>
       <use xlink:href="#m874b83988d" x="306.340937" y="384.43975" style="stroke: #000000; stroke-width: 0.8"/>
      </g>
     </g>
     <g id="text_3">
      <!-- 0.4 -->
      <g transform="translate(298.840937 398.31475) scale(0.1 -0.1)">
       <defs>
        <path id="SimHei-34" d="M 2000 1100 
L 75 1100 
L 75 1525 
L 2100 4450 
L 2475 4450 
L 2475 1525 
L 3075 1525 
L 3075 1100 
L 2475 1100 
L 2475 150 
L 2000 150 
L 2000 1100 
z
M 2000 1525 
L 2000 3500 
L 600 1525 
L 2000 1525 
z
" transform="scale(0.015625)"/>
       </defs>
       <use xlink:href="#SimHei-30"/>
       <use xlink:href="#SimHei-2e" transform="translate(50 0)"/>
       <use xlink:href="#SimHei-34" transform="translate(100 0)"/>
      </g>
     </g>
    </g>
    <g id="xtick_4">
     <g id="line2d_7">
      <path d="M 436.868438 384.43975 
L 436.868438 48.975 
" clip-path="url(#pb9f0f61fd9)" style="fill: none; stroke: #b0b0b0; stroke-opacity: 0.3; stroke-width: 0.8; stroke-linecap: square"/>
     </g>
     <g id="line2d_8">
      <g>
       <use xlink:href="#m874b83988d" x="436.868438" y="384.43975" style="stroke: #000000; stroke-width: 0.8"/>
      </g>
     </g>
     <g id="text_4">
      <!-- 0.6 -->
      <g transform="translate(429.368438 398.31475) scale(0.1 -0.1)">
       <defs>
        <path id="SimHei-36" d="M 250 1612 
Q 275 1975 387 2225 
Q 500 2475 725 2850 
L 1750 4450 
L 2325 4450 
L 1275 2800 
Q 1950 2975 2350 2750 
Q 2750 2525 2887 2237 
Q 3025 1950 3037 1612 
Q 3050 1275 2937 950 
Q 2825 625 2537 362 
Q 2250 100 1737 75 
Q 1225 50 862 262 
Q 500 475 362 862 
Q 225 1250 250 1612 
z
M 1025 787 
Q 1250 550 1625 525 
Q 2000 500 2250 775 
Q 2500 1050 2500 1575 
Q 2500 2100 2187 2300 
Q 1875 2500 1487 2450 
Q 1100 2400 925 2075 
Q 750 1750 775 1387 
Q 800 1025 1025 787 
z
" transform="scale(0.015625)"/>
       </defs>
       <use xlink:href="#SimHei-30"/>
       <use xlink:href="#SimHei-2e" transform="translate(50 0)"/>
       <use xlink:href="#SimHei-36" transform="translate(100 0)"/>
      </g>
     </g>
    </g>
    <g id="xtick_5">
     <g id="line2d_9">
      <path d="M 567.395938 384.43975 
L 567.395938 48.975 
" clip-path="url(#pb9f0f61fd9)" style="fill: none; stroke: #b0b0b0; stroke-opacity: 0.3; stroke-width: 0.8; stroke-linecap: square"/>
     </g>
     <g id="line2d_10">
      <g>
       <use xlink:href="#m874b83988d" x="567.395938" y="384.43975" style="stroke: #000000; stroke-width: 0.8"/>
      </g>
     </g>
     <g id="text_5">
      <!-- 0.8 -->
      <g transform="translate(559.895938 398.31475) scale(0.1 -0.1)">
       <defs>
        <path id="SimHei-38" d="M 175 1375 
Q 175 1675 325 1962 
Q 475 2250 825 2425 
Q 525 2600 425 2812 
Q 325 3025 312 3300 
Q 300 3575 387 3775 
Q 475 3975 650 4150 
Q 825 4325 1037 4387 
Q 1250 4450 1500 4450 
Q 1750 4450 1950 4400 
Q 2150 4350 2375 4187 
Q 2600 4025 2700 3725 
Q 2800 3425 2687 3025 
Q 2575 2625 2100 2400 
Q 2525 2275 2700 2012 
Q 2875 1750 2875 1375 
Q 2875 1000 2762 775 
Q 2650 550 2512 400 
Q 2375 250 2137 162 
Q 1900 75 1537 75 
Q 1175 75 912 162 
Q 650 250 475 425 
Q 300 600 237 837 
Q 175 1075 175 1375 
z
M 687 1400 
Q 675 1100 787 875 
Q 900 650 1200 587 
Q 1500 525 1825 600 
Q 2150 675 2275 950 
Q 2400 1225 2362 1500 
Q 2325 1775 2050 1962 
Q 1775 2150 1450 2125 
Q 1125 2100 912 1900 
Q 700 1700 687 1400 
z
M 775 3350 
Q 775 3100 950 2875 
Q 1125 2650 1500 2650 
Q 1875 2650 2062 2875 
Q 2250 3100 2237 3412 
Q 2225 3725 2012 3875 
Q 1800 4025 1437 4000 
Q 1075 3975 925 3787 
Q 775 3600 775 3350 
z
" transform="scale(0.015625)"/>
       </defs>
       <use xlink:href="#SimHei-30"/>
       <use xlink:href="#SimHei-2e" transform="translate(50 0)"/>
       <use xlink:href="#SimHei-38" transform="translate(100 0)"/>
      </g>
     </g>
    </g>
    <g id="xtick_6">
     <g id="line2d_11">
      <path d="M 697.923437 384.43975 
L 697.923437 48.975 
" clip-path="url(#pb9f0f61fd9)" style="fill: none; stroke: #b0b0b0; stroke-opacity: 0.3; stroke-width: 0.8; stroke-linecap: square"/>
     </g>
     <g id="line2d_12">
      <g>
       <use xlink:href="#m874b83988d" x="697.923437" y="384.43975" style="stroke: #000000; stroke-width: 0.8"/>
      </g>
     </g>
     <g id="text_6">
      <!-- 1.0 -->
      <g transform="translate(690.423437 398.31475) scale(0.1 -0.1)">
       <defs>
        <path id="SimHei-31" d="M 1400 3600 
Q 1075 3275 575 2975 
L 575 3450 
Q 1200 3875 1600 4450 
L 1900 4450 
L 1900 150 
L 1400 150 
L 1400 3600 
z
" transform="scale(0.015625)"/>
       </defs>
       <use xlink:href="#SimHei-31"/>
       <use xlink:href="#SimHei-2e" transform="translate(50 0)"/>
       <use xlink:href="#SimHei-30" transform="translate(100 0)"/>
      </g>
     </g>
    </g>
    <g id="text_7">
     <!-- 绝对相关系数 |r| -->
     <g transform="translate(319.604687 414.736625) scale(0.13 -0.13)">
      <defs>
       <path id="SimHei-7edd" d="M 4050 4950 
Q 3900 4775 3700 4475 
L 5375 4475 
Q 4900 3600 4700 3175 
L 5750 3175 
Q 5725 2775 5725 2375 
L 5725 1725 
Q 5725 1400 5750 1050 
L 5275 1050 
L 5275 1350 
L 3275 1350 
L 3275 250 
Q 3275 -175 3775 -175 
L 5125 -175 
Q 5375 -175 5462 -12 
Q 5550 150 5600 475 
Q 5850 350 6175 275 
Q 6000 -300 5787 -437 
Q 5575 -575 5300 -575 
L 3600 -575 
Q 2825 -575 2825 50 
L 2825 2350 
Q 2825 2750 2800 3175 
L 4175 3175 
Q 4500 3775 4625 4075 
L 3500 4075 
Q 3100 3500 2900 3225 
Q 2725 3375 2500 3500 
Q 2800 3900 3062 4312 
Q 3325 4725 3525 5225 
Q 3800 5075 4050 4950 
z
M 1750 3225 
Q 1900 3500 2000 3725 
Q 2200 3575 2550 3400 
Q 2300 3225 2012 2800 
Q 1725 2375 1050 1575 
Q 2025 1675 2350 1725 
Q 2350 1525 2400 1275 
Q 1975 1250 1537 1200 
Q 1100 1150 625 1025 
Q 500 1350 400 1550 
Q 650 1700 975 2050 
Q 1300 2400 1550 2825 
Q 1150 2825 900 2787 
Q 650 2750 475 2675 
Q 400 2925 300 3175 
Q 525 3325 837 3912 
Q 1150 4500 1350 5125 
Q 1525 4975 1900 4825 
Q 1700 4600 1450 4150 
Q 1200 3700 850 3175 
Q 1050 3175 1750 3225 
z
M 2425 625 
Q 2400 350 2425 200 
Q 2100 125 1487 -12 
Q 875 -150 400 -325 
Q 350 -25 275 275 
Q 950 350 1387 425 
Q 1825 500 2425 625 
z
M 5275 1725 
L 5275 2775 
L 4475 2775 
L 4475 1725 
L 5275 1725 
z
M 4050 1725 
L 4050 2775 
L 3275 2775 
L 3275 1725 
L 4050 1725 
z
" transform="scale(0.015625)"/>
       <path id="SimHei-5bf9" d="M 525 4250 
Q 900 4225 1400 4225 
L 2825 4225 
Q 2575 2625 2200 1750 
Q 2825 875 3125 400 
Q 2950 275 2725 75 
Q 2200 975 1950 1300 
Q 1650 775 1350 425 
Q 1050 75 600 -350 
Q 425 -125 200 -25 
Q 625 275 975 675 
Q 1325 1075 1650 1700 
Q 1050 2425 550 2900 
Q 700 3025 900 3225 
Q 1625 2425 1875 2150 
Q 2200 3050 2300 3825 
L 1400 3825 
Q 900 3825 525 3800 
L 525 4250 
z
M 2925 3700 
Q 3525 3675 3750 3675 
L 4825 3675 
L 4825 4425 
Q 4825 4750 4775 5125 
L 5350 5125 
Q 5325 4825 5325 4375 
L 5325 3675 
Q 5575 3675 6150 3700 
L 6150 3250 
Q 5575 3275 5325 3275 
L 5325 125 
Q 5350 -350 5012 -475 
Q 4675 -600 4250 -650 
Q 4175 -350 4025 -100 
Q 4575 -100 4712 -37 
Q 4850 25 4825 325 
L 4825 3275 
L 3775 3275 
Q 3550 3275 2925 3225 
L 2925 3700 
z
M 3450 2725 
Q 3875 1975 4175 1325 
Q 3850 1200 3700 1075 
Q 3475 1750 3050 2475 
Q 3225 2550 3450 2725 
z
" transform="scale(0.015625)"/>
       <path id="SimHei-76f8" d="M 5900 4825 
Q 5875 4225 5875 3575 
L 5875 750 
Q 5875 75 5900 -575 
L 5400 -575 
L 5400 -100 
L 3525 -100 
L 3525 -625 
L 3025 -625 
Q 3050 125 3050 675 
L 3050 3600 
Q 3050 4250 3025 4825 
L 5900 4825 
z
M 1400 3825 
Q 1400 4850 1375 5200 
L 1925 5200 
Q 1900 4825 1900 3825 
Q 2500 3825 2825 3850 
L 2825 3375 
Q 2525 3400 1900 3400 
L 1900 2450 
Q 2025 2575 2175 2750 
Q 2625 2275 2950 1825 
Q 2800 1725 2575 1500 
Q 2300 1975 1900 2375 
L 1900 475 
Q 1900 50 1925 -625 
L 1375 -625 
Q 1400 50 1400 450 
L 1400 2150 
Q 1075 1225 650 675 
Q 475 950 300 1100 
Q 475 1250 800 1887 
Q 1125 2525 1300 3400 
Q 750 3400 400 3375 
L 400 3850 
Q 850 3825 1400 3825 
z
M 5400 325 
L 5400 1475 
L 3525 1475 
L 3525 325 
L 5400 325 
z
M 5400 3300 
L 5400 4400 
L 3525 4400 
L 3525 3300 
L 5400 3300 
z
M 5400 1900 
L 5400 2900 
L 3525 2900 
L 3525 1900 
L 5400 1900 
z
" transform="scale(0.015625)"/>
       <path id="SimHei-5173" d="M 4675 4850 
Q 4525 4675 4362 4375 
Q 4200 4075 4075 3825 
L 4625 3825 
Q 5150 3825 5550 3850 
L 5550 3375 
Q 5225 3400 4700 3400 
L 3400 3400 
L 3400 2150 
L 4975 2150 
Q 5475 2150 5875 2175 
L 5875 1700 
Q 5475 1725 5025 1725 
L 3500 1725 
Q 4250 450 6000 75 
Q 5775 -175 5600 -525 
Q 4025 0 3225 1300 
Q 2800 200 875 -600 
Q 775 -350 500 -150 
Q 2425 375 2875 1725 
L 1550 1725 
Q 975 1725 600 1700 
L 600 2150 
Q 875 2125 1450 2125 
L 2925 2125 
L 2925 3400 
L 1750 3400 
Q 1275 3400 900 3375 
L 900 3850 
Q 1275 3825 1775 3825 
L 3575 3825 
Q 3925 4625 4075 5150 
Q 4325 5000 4675 4850 
z
M 2125 5125 
Q 2450 4725 2800 4175 
Q 2500 4025 2325 3875 
Q 2025 4450 1725 4825 
Q 1950 4975 2125 5125 
z
" transform="scale(0.015625)"/>
       <path id="SimHei-7cfb" d="M 5300 5200 
Q 5450 4950 5725 4675 
Q 4975 4650 4437 4587 
Q 3900 4525 3125 4450 
Q 3250 4325 3475 4225 
Q 3150 4025 2837 3762 
Q 2525 3500 2225 3275 
L 3475 3275 
Q 4100 3700 4525 4050 
Q 4775 3850 5125 3700 
Q 4775 3550 4450 3375 
Q 4125 3200 3387 2737 
Q 2650 2275 2125 1975 
Q 3600 2050 4875 2100 
Q 4750 2225 4225 2625 
Q 4475 2725 4650 2875 
Q 4950 2650 5337 2312 
Q 5725 1975 6075 1650 
Q 5775 1475 5600 1325 
Q 5400 1575 5225 1725 
Q 4550 1700 3625 1650 
L 3625 150 
Q 3625 -325 3387 -412 
Q 3150 -500 2525 -600 
Q 2475 -300 2300 -25 
Q 2875 -25 3012 12 
Q 3150 50 3150 300 
L 3150 1650 
Q 1625 1625 1075 1525 
Q 1000 1775 900 2050 
Q 1450 2100 1875 2300 
Q 2300 2500 2900 2900 
Q 2325 2900 2037 2875 
Q 1750 2850 1400 2800 
Q 1325 3075 1250 3325 
Q 1675 3325 2100 3662 
Q 2525 4000 2750 4400 
Q 1350 4350 925 4300 
Q 850 4550 750 4750 
Q 2150 4750 3250 4850 
Q 4350 4950 5300 5200 
z
M 4625 1250 
Q 4925 1025 5325 737 
Q 5725 450 6000 175 
Q 5800 0 5600 -225 
Q 5275 125 4925 400 
Q 4575 675 4275 875 
Q 4500 1050 4625 1250 
z
M 2200 875 
Q 1900 725 1537 375 
Q 1175 25 800 -300 
Q 575 -75 375 25 
Q 1075 450 1675 1225 
Q 1900 1050 2200 875 
z
" transform="scale(0.015625)"/>
       <path id="SimHei-6570" d="M 4525 4925 
Q 4475 4800 4400 4587 
Q 4325 4375 4175 3825 
L 5325 3825 
Q 5575 3825 5925 3850 
L 5925 3400 
Q 5650 3425 5500 3425 
Q 5500 3025 5362 2162 
Q 5225 1300 4875 675 
Q 5125 375 5437 137 
Q 5750 -100 6025 -200 
Q 5725 -425 5625 -625 
Q 5325 -450 5075 -225 
Q 4825 0 4575 325 
Q 4300 25 3987 -187 
Q 3675 -400 3200 -650 
Q 3075 -425 2850 -300 
Q 3225 -150 3650 125 
Q 4075 400 4300 675 
Q 4125 1025 3962 1425 
Q 3800 1825 3675 2475 
Q 3600 2275 3425 1950 
Q 3250 2050 3000 2150 
Q 3400 2850 3650 3675 
Q 3900 4500 3975 5100 
Q 4275 4975 4525 4925 
z
M 2100 2250 
Q 2000 2150 1875 1925 
L 3250 1925 
Q 3100 1300 2725 675 
Q 3125 525 3350 400 
Q 3225 225 3125 25 
Q 2900 175 2450 325 
Q 1950 -225 725 -650 
Q 600 -375 400 -275 
Q 1575 0 2000 475 
Q 1300 650 850 775 
Q 1000 1000 1250 1525 
Q 1000 1525 425 1500 
L 425 1950 
Q 900 1925 1400 1925 
Q 1500 2150 1550 2425 
Q 1825 2325 2100 2250 
z
M 1775 3950 
Q 1775 4550 1750 5100 
L 2250 5100 
Q 2225 4575 2225 3950 
Q 3075 3950 3425 3975 
L 3425 3525 
Q 3075 3550 2225 3550 
Q 2225 2825 2250 2425 
L 1750 2425 
Q 1775 2775 1775 3300 
Q 1650 3100 1300 2787 
Q 950 2475 650 2300 
Q 525 2525 275 2625 
Q 500 2700 875 2975 
Q 1250 3250 1450 3550 
Q 950 3550 500 3525 
L 500 3975 
Q 925 3950 1775 3950 
z
M 3975 3175 
Q 4200 1700 4600 1125 
Q 4850 1700 4937 2287 
Q 5025 2875 5050 3425 
L 4075 3425 
L 3975 3175 
z
M 1450 1000 
Q 1750 925 2275 800 
Q 2475 1050 2650 1525 
L 1725 1525 
Q 1600 1275 1450 1000 
z
M 3325 4825 
Q 3200 4625 3125 4450 
Q 3050 4275 2925 4025 
Q 2725 4125 2525 4175 
Q 2725 4500 2900 5000 
Q 3150 4875 3325 4825 
z
M 2575 3375 
Q 2900 3050 3200 2725 
Q 3050 2600 2875 2425 
Q 2525 2850 2300 3100 
Q 2450 3225 2575 3375 
z
M 925 5000 
Q 1275 4650 1500 4300 
L 1125 4075 
Q 950 4425 600 4725 
Q 825 4875 925 5000 
z
" transform="scale(0.015625)"/>
       <path id="SimHei-20" transform="scale(0.015625)"/>
       <path id="SimHei-7c" d="M 1825 -850 
L 1325 -850 
L 1325 5500 
L 1825 5500 
L 1825 -850 
z
" transform="scale(0.015625)"/>
       <path id="SimHei-72" d="M 2500 2425 
Q 2025 2500 1700 2287 
Q 1375 2075 1150 1550 
L 1150 125 
L 650 125 
L 650 2925 
L 1150 2925 
L 1150 2200 
Q 1375 2600 1712 2787 
Q 2050 2975 2500 2975 
L 2500 2425 
z
" transform="scale(0.015625)"/>
      </defs>
      <use xlink:href="#SimHei-7edd"/>
      <use xlink:href="#SimHei-5bf9" transform="translate(100 0)"/>
      <use xlink:href="#SimHei-76f8" transform="translate(200 0)"/>
      <use xlink:href="#SimHei-5173" transform="translate(300 0)"/>
      <use xlink:href="#SimHei-7cfb" transform="translate(400 0)"/>
      <use xlink:href="#SimHei-6570" transform="translate(500 0)"/>
      <use xlink:href="#SimHei-20" transform="translate(600 0)"/>
      <use xlink:href="#SimHei-7c" transform="translate(650 0)"/>
      <use xlink:href="#SimHei-72" transform="translate(700 0)"/>
      <use xlink:href="#SimHei-7c" transform="translate(750 0)"/>
     </g>
    </g>
   </g>
   <g id="matplotlib.axis_2">
    <g id="ytick_1">
     <g id="line2d_13">
      <path d="M 45.285938 369.191352 
L 697.923437 369.191352 
" clip-path="url(#pb9f0f61fd9)" style="fill: none; stroke: #b0b0b0; stroke-opacity: 0.3; stroke-width: 0.8; stroke-linecap: square"/>
     </g>
     <g id="line2d_14">
      <defs>
       <path id="m30f40f68ca" d="M 0 0 
L -3.5 0 
" style="stroke: #000000; stroke-width: 0.8"/>
      </defs>
      <g>
       <use xlink:href="#m30f40f68ca" x="45.285938" y="369.191352" style="stroke: #000000; stroke-width: 0.8"/>
      </g>
     </g>
     <g id="text_8">
      <!-- 0.0 -->
      <g transform="translate(23.285938 372.628852) scale(0.1 -0.1)">
       <use xlink:href="#SimHei-30"/>
       <use xlink:href="#SimHei-2e" transform="translate(50 0)"/>
       <use xlink:href="#SimHei-30" transform="translate(100 0)"/>
      </g>
     </g>
    </g>
    <g id="ytick_2">
     <g id="line2d_15">
      <path d="M 45.285938 330.61841 
L 697.923437 330.61841 
" clip-path="url(#pb9f0f61fd9)" style="fill: none; stroke: #b0b0b0; stroke-opacity: 0.3; stroke-width: 0.8; stroke-linecap: square"/>
     </g>
     <g id="line2d_16">
      <g>
       <use xlink:href="#m30f40f68ca" x="45.285938" y="330.61841" style="stroke: #000000; stroke-width: 0.8"/>
      </g>
     </g>
     <g id="text_9">
      <!-- 0.2 -->
      <g transform="translate(23.285938 334.05591) scale(0.1 -0.1)">
       <use xlink:href="#SimHei-30"/>
       <use xlink:href="#SimHei-2e" transform="translate(50 0)"/>
       <use xlink:href="#SimHei-32" transform="translate(100 0)"/>
      </g>
     </g>
    </g>
    <g id="ytick_3">
     <g id="line2d_17">
      <path d="M 45.285938 292.045469 
L 697.923437 292.045469 
" clip-path="url(#pb9f0f61fd9)" style="fill: none; stroke: #b0b0b0; stroke-opacity: 0.3; stroke-width: 0.8; stroke-linecap: square"/>
     </g>
     <g id="line2d_18">
      <g>
       <use xlink:href="#m30f40f68ca" x="45.285938" y="292.045469" style="stroke: #000000; stroke-width: 0.8"/>
      </g>
     </g>
     <g id="text_10">
      <!-- 0.4 -->
      <g transform="translate(23.285938 295.482969) scale(0.1 -0.1)">
       <use xlink:href="#SimHei-30"/>
       <use xlink:href="#SimHei-2e" transform="translate(50 0)"/>
       <use xlink:href="#SimHei-34" transform="translate(100 0)"/>
      </g>
     </g>
    </g>
    <g id="ytick_4">
     <g id="line2d_19">
      <path d="M 45.285938 253.472527 
L 697.923437 253.472527 
" clip-path="url(#pb9f0f61fd9)" style="fill: none; stroke: #b0b0b0; stroke-opacity: 0.3; stroke-width: 0.8; stroke-linecap: square"/>
     </g>
     <g id="line2d_20">
      <g>
       <use xlink:href="#m30f40f68ca" x="45.285938" y="253.472527" style="stroke: #000000; stroke-width: 0.8"/>
      </g>
     </g>
     <g id="text_11">
      <!-- 0.6 -->
      <g transform="translate(23.285938 256.910027) scale(0.1 -0.1)">
       <use xlink:href="#SimHei-30"/>
       <use xlink:href="#SimHei-2e" transform="translate(50 0)"/>
       <use xlink:href="#SimHei-36" transform="translate(100 0)"/>
      </g>
     </g>
    </g>
    <g id="ytick_5">
     <g id="line2d_21">
      <path d="M 45.285938 214.899585 
L 697.923437 214.899585 
" clip-path="url(#pb9f0f61fd9)" style="fill: none; stroke: #b0b0b0; stroke-opacity: 0.3; stroke-width: 0.8; stroke-linecap: square"/>
     </g>
     <g id="line2d_22">
      <g>
       <use xlink:href="#m30f40f68ca" x="45.285938" y="214.899585" style="stroke: #000000; stroke-width: 0.8"/>
      </g>
     </g>
     <g id="text_12">
      <!-- 0.8 -->
      <g transform="translate(23.285938 218.337085) scale(0.1 -0.1)">
       <use xlink:href="#SimHei-30"/>
       <use xlink:href="#SimHei-2e" transform="translate(50 0)"/>
       <use xlink:href="#SimHei-38" transform="translate(100 0)"/>
      </g>
     </g>
    </g>
    <g id="ytick_6">
     <g id="line2d_23">
      <path d="M 45.285938 176.326643 
L 697.923437 176.326643 
" clip-path="url(#pb9f0f61fd9)" style="fill: none; stroke: #b0b0b0; stroke-opacity: 0.3; stroke-width: 0.8; stroke-linecap: square"/>
     </g>
     <g id="line2d_24">
      <g>
       <use xlink:href="#m30f40f68ca" x="45.285938" y="176.326643" style="stroke: #000000; stroke-width: 0.8"/>
      </g>
     </g>
     <g id="text_13">
      <!-- 1.0 -->
      <g transform="translate(23.285938 179.764143) scale(0.1 -0.1)">
       <use xlink:href="#SimHei-31"/>
       <use xlink:href="#SimHei-2e" transform="translate(50 0)"/>
       <use xlink:href="#SimHei-30" transform="translate(100 0)"/>
      </g>
     </g>
    </g>
    <g id="ytick_7">
     <g id="line2d_25">
      <path d="M 45.285938 137.753701 
L 697.923437 137.753701 
" clip-path="url(#pb9f0f61fd9)" style="fill: none; stroke: #b0b0b0; stroke-opacity: 0.3; stroke-width: 0.8; stroke-linecap: square"/>
     </g>
     <g id="line2d_26">
      <g>
       <use xlink:href="#m30f40f68ca" x="45.285938" y="137.753701" style="stroke: #000000; stroke-width: 0.8"/>
      </g>
     </g>
     <g id="text_14">
      <!-- 1.2 -->
      <g transform="translate(23.285938 141.191201) scale(0.1 -0.1)">
       <use xlink:href="#SimHei-31"/>
       <use xlink:href="#SimHei-2e" transform="translate(50 0)"/>
       <use xlink:href="#SimHei-32" transform="translate(100 0)"/>
      </g>
     </g>
    </g>
    <g id="ytick_8">
     <g id="line2d_27">
      <path d="M 45.285938 99.180759 
L 697.923437 99.180759 
" clip-path="url(#pb9f0f61fd9)" style="fill: none; stroke: #b0b0b0; stroke-opacity: 0.3; stroke-width: 0.8; stroke-linecap: square"/>
     </g>
     <g id="line2d_28">
      <g>
       <use xlink:href="#m30f40f68ca" x="45.285938" y="99.180759" style="stroke: #000000; stroke-width: 0.8"/>
      </g>
     </g>
     <g id="text_15">
      <!-- 1.4 -->
      <g transform="translate(23.285938 102.618259) scale(0.1 -0.1)">
       <use xlink:href="#SimHei-31"/>
       <use xlink:href="#SimHei-2e" transform="translate(50 0)"/>
       <use xlink:href="#SimHei-34" transform="translate(100 0)"/>
      </g>
     </g>
    </g>
    <g id="ytick_9">
     <g id="line2d_29">
      <path d="M 45.285938 60.607818 
L 697.923437 60.607818 
" clip-path="url(#pb9f0f61fd9)" style="fill: none; stroke: #b0b0b0; stroke-opacity: 0.3; stroke-width: 0.8; stroke-linecap: square"/>
     </g>
     <g id="line2d_30">
      <g>
       <use xlink:href="#m30f40f68ca" x="45.285938" y="60.607818" style="stroke: #000000; stroke-width: 0.8"/>
      </g>
     </g>
     <g id="text_16">
      <!-- 1.6 -->
      <g transform="translate(23.285938 64.045318) scale(0.1 -0.1)">
       <use xlink:href="#SimHei-31"/>
       <use xlink:href="#SimHei-2e" transform="translate(50 0)"/>
       <use xlink:href="#SimHei-36" transform="translate(100 0)"/>
      </g>
     </g>
    </g>
    <g id="text_17">
     <!-- 密度 -->
     <g transform="translate(17.660938 229.707375) rotate(-90) scale(0.13 -0.13)">
      <defs>
       <path id="SimHei-5bc6" d="M 4825 3350 
Q 4475 3125 3962 2750 
Q 3450 2375 2775 2025 
L 4025 2025 
Q 4550 2025 4550 2600 
Q 4800 2450 5150 2325 
Q 4900 1775 4712 1687 
Q 4525 1600 4200 1600 
L 2875 1600 
Q 2225 1575 2175 1675 
Q 1125 1325 575 1175 
Q 475 1425 250 1675 
Q 850 1725 1262 1850 
Q 1675 1975 2000 2100 
L 2000 2750 
Q 2000 3000 1975 3400 
L 2550 3400 
Q 2525 3025 2525 2775 
L 2525 2350 
Q 2900 2525 3425 2887 
Q 3950 3250 4325 3775 
Q 4475 3625 4825 3350 
z
M 1225 550 
Q 1225 825 1200 1125 
L 1750 1125 
Q 1725 775 1725 525 
L 1725 0 
L 3075 0 
L 3075 700 
Q 3075 950 3025 1375 
L 3600 1375 
Q 3575 1100 3575 675 
L 3575 0 
L 4975 0 
L 4975 625 
Q 4975 875 4950 1200 
L 5500 1200 
Q 5475 900 5475 600 
L 5475 -225 
Q 5475 -425 5500 -700 
L 4975 -700 
L 4975 -400 
L 1200 -400 
Q 1225 -150 1225 75 
L 1225 550 
z
M 5375 3575 
L 5375 4150 
L 1150 4150 
L 1150 3550 
L 600 3550 
Q 625 3700 625 4000 
Q 625 4300 600 4575 
L 2975 4575 
Q 2900 4800 2775 5050 
Q 3000 5125 3325 5225 
Q 3425 5075 3575 4575 
L 5925 4575 
Q 5900 4250 5900 4025 
Q 5900 3825 5925 3575 
L 5375 3575 
z
M 1650 3275 
Q 1500 2850 1225 2250 
Q 900 2350 675 2400 
Q 950 2800 1100 3400 
Q 1350 3325 1650 3275 
z
M 5450 3325 
Q 5775 2925 6100 2450 
Q 5825 2350 5625 2200 
Q 5350 2675 5000 3050 
Q 5200 3175 5450 3325 
z
M 3225 3150 
Q 2875 3600 2575 3825 
Q 2775 3950 2975 4125 
Q 3175 3975 3650 3475 
Q 3450 3300 3225 3150 
z
" transform="scale(0.015625)"/>
       <path id="SimHei-5ea6" d="M 1750 1675 
Q 2450 1650 2875 1650 
L 5200 1650 
Q 4975 1250 4650 850 
Q 4325 450 4025 200 
Q 4350 50 4950 -50 
Q 5550 -150 6100 -150 
Q 5950 -300 5825 -650 
Q 5100 -550 4550 -412 
Q 4000 -275 3625 -100 
Q 3100 -325 2587 -462 
Q 2075 -600 1525 -675 
Q 1450 -475 1225 -250 
Q 1675 -250 2250 -125 
Q 2825 0 3250 200 
Q 2825 550 2400 1275 
L 1750 1250 
L 1750 1675 
z
M 2975 5075 
Q 3250 5150 3475 5250 
Q 3625 4975 3775 4525 
L 4700 4525 
Q 4975 4525 5700 4550 
L 5700 4100 
Q 5000 4125 4650 4125 
L 1375 4125 
Q 1375 3000 1350 2312 
Q 1325 1625 1212 950 
Q 1100 275 725 -525 
Q 500 -375 250 -300 
Q 650 400 762 1075 
Q 875 1750 887 2800 
Q 900 3850 875 4525 
L 3200 4525 
Q 3100 4850 2975 5075 
z
M 2475 3300 
Q 2475 3700 2450 3925 
L 2975 3925 
Q 2950 3725 2950 3300 
L 4300 3300 
Q 4300 3700 4275 3950 
L 4800 3950 
Q 4775 3650 4775 3300 
Q 5325 3300 5725 3325 
L 5725 2900 
Q 5350 2925 4775 2925 
Q 4775 2250 4800 1950 
L 2450 1950 
Q 2475 2350 2475 2925 
Q 2175 2925 1600 2900 
L 1600 3325 
Q 2175 3300 2475 3300 
z
M 4300 2350 
L 4300 2925 
L 2950 2925 
L 2950 2350 
L 4300 2350 
z
M 2875 1275 
Q 3200 775 3650 425 
Q 4025 700 4425 1275 
L 2900 1275 
L 2875 1275 
z
" transform="scale(0.015625)"/>
      </defs>
      <use xlink:href="#SimHei-5bc6"/>
      <use xlink:href="#SimHei-5ea6" transform="translate(100 0)"/>
     </g>
    </g>
   </g>
   <g id="line2d_31">
    <path d="M 45.285938 160.81986 
L 51.845108 144.727109 
L 58.404279 129.572507 
L 61.683865 122.432479 
L 64.96345 115.625306 
L 68.243035 109.178729 
L 71.522621 103.11751 
L 74.802206 97.46318 
L 78.081792 92.233825 
L 81.361377 87.443923 
L 84.640963 83.104239 
L 87.920548 79.22176 
L 91.200133 75.799701 
L 94.479719 72.837551 
L 97.759304 70.331174 
L 101.03889 68.272965 
L 104.318475 66.652042 
L 107.598061 65.454492 
L 110.877646 64.663639 
L 114.157231 64.260357 
L 117.436817 64.223398 
L 120.716402 64.529747 
L 123.995988 65.154986 
L 127.275573 66.073659 
L 130.555159 67.259645 
L 133.834744 68.686524 
L 137.114329 70.32792 
L 140.393915 72.157839 
L 143.6735 74.150979 
L 150.232671 78.530816 
L 156.791842 83.288753 
L 166.630598 90.808074 
L 186.308111 105.98913 
L 199.426453 115.733657 
L 219.103965 129.924552 
L 235.501892 141.864152 
L 248.620234 151.700918 
L 274.856917 171.584339 
L 281.416088 176.333832 
L 287.975259 180.873239 
L 294.53443 185.139234 
L 301.093601 189.073026 
L 307.652772 192.623741 
L 314.211943 195.751191 
L 320.771113 198.427855 
L 327.330284 200.639953 
L 333.889455 202.387555 
L 340.448626 203.683778 
L 347.007797 204.553173 
L 353.566968 205.029482 
L 360.126139 205.152989 
L 366.685309 204.967733 
L 373.24448 204.518822 
L 379.803651 203.850105 
L 386.362822 203.00239 
L 396.201578 201.474195 
L 409.31992 199.116179 
L 445.39536 192.336195 
L 451.95453 191.34144 
L 458.513701 190.530104 
L 465.072872 189.961162 
L 471.632043 189.69942 
L 478.191214 189.813595 
L 481.470799 190.033577 
L 484.750385 190.373761 
L 488.02997 190.842623 
L 491.309556 191.448328 
L 494.589141 192.198625 
L 497.868726 193.100742 
L 501.148312 194.161279 
L 504.427897 195.386114 
L 507.707483 196.780302 
L 510.987068 198.347996 
L 514.266654 200.092364 
L 517.546239 202.015524 
L 520.825824 204.118486 
L 524.10541 206.401105 
L 527.384995 208.862054 
L 530.664581 211.498801 
L 533.944166 214.307609 
L 537.223752 217.28354 
L 540.503337 220.420484 
L 547.062508 227.147334 
L 553.621679 234.417544 
L 560.18085 242.145445 
L 566.74002 250.233232 
L 576.578777 262.805295 
L 596.256289 288.157722 
L 602.81546 296.281157 
L 609.374631 304.086414 
L 615.933802 311.499143 
L 622.492973 318.45958 
L 629.052144 324.923249 
L 635.611314 330.860924 
L 642.170485 336.257953 
L 648.729656 341.113038 
L 655.288827 345.436602 
L 661.847998 349.24889 
L 668.407169 352.577936 
L 674.96634 355.457522 
L 681.52551 357.925244 
L 688.084681 360.020755 
L 694.643852 361.784246 
L 697.923437 362.553877 
L 697.923437 362.553877 
" clip-path="url(#pb9f0f61fd9)" style="fill: none; stroke: #0000ff; stroke-width: 2.5; stroke-linecap: square"/>
   </g>
   <g id="line2d_32">
    <path d="M 235.815822 384.43975 
L 235.815822 48.975 
" clip-path="url(#pb9f0f61fd9)" style="fill: none; stroke-dasharray: 9.25,4; stroke-dashoffset: 0; stroke: #008000; stroke-width: 2.5"/>
   </g>
   <g id="line2d_33">
    <path d="M 384.315835 384.43975 
L 384.315835 48.975 
" clip-path="url(#pb9f0f61fd9)" style="fill: none; stroke-dasharray: 9.25,4; stroke-dashoffset: 0; stroke: #800080; stroke-width: 2.5"/>
   </g>
   <g id="line2d_34">
    <path d="M 241.077187 384.43975 
L 241.077187 48.975 
" clip-path="url(#pb9f0f61fd9)" style="fill: none; stroke-dasharray: 1.5,2.475; stroke-dashoffset: 0; stroke: #808080; stroke-opacity: 0.5; stroke-width: 1.5"/>
   </g>
   <g id="line2d_35">
    <path d="M 567.395938 384.43975 
L 567.395938 48.975 
" clip-path="url(#pb9f0f61fd9)" style="fill: none; stroke-dasharray: 1.5,2.475; stroke-dashoffset: 0; stroke: #808080; stroke-opacity: 0.5; stroke-width: 1.5"/>
   </g>
   <g id="patch_3">
    <path d="M 45.285938 384.43975 
L 45.285938 48.975 
" style="fill: none; stroke: #000000; stroke-width: 0.8; stroke-linejoin: miter; stroke-linecap: square"/>
   </g>
   <g id="patch_4">
    <path d="M 697.923437 384.43975 
L 697.923437 48.975 
" style="fill: none; stroke: #000000; stroke-width: 0.8; stroke-linejoin: miter; stroke-linecap: square"/>
   </g>
   <g id="patch_5">
    <path d="M 45.285938 384.43975 
L 697.923437 384.43975 
" style="fill: none; stroke: #000000; stroke-width: 0.8; stroke-linejoin: miter; stroke-linecap: square"/>
   </g>
   <g id="patch_6">
    <path d="M 45.285938 48.975 
L 697.923437 48.975 
" style="fill: none; stroke: #000000; stroke-width: 0.8; stroke-linejoin: miter; stroke-linecap: square"/>
   </g>
   <g id="text_18">
    <g id="patch_7">
     <path d="M 469.500312 117.516988 
L 662.000312 117.516988 
Q 665.300312 117.516988 665.300312 114.216988 
L 665.300312 65.834175 
Q 665.300312 62.534175 662.000312 62.534175 
L 469.500312 62.534175 
Q 466.200312 62.534175 466.200312 65.834175 
L 466.200312 114.216988 
Q 466.200312 117.516988 469.500312 117.516988 
z
" style="fill: #f5deb3; opacity: 0.8; stroke: #000000; stroke-linejoin: miter"/>
    </g>
    <!-- 总尺寸数: 196 -->
    <g transform="translate(469.500312 74.427925) scale(0.11 -0.11)">
     <defs>
      <path id="SimHei-603b" d="M 4550 4850 
Q 4375 4650 4025 3900 
L 5100 3900 
Q 5075 3425 5075 2950 
Q 5075 2500 5100 2025 
L 1175 2025 
Q 1200 2550 1200 3000 
Q 1200 3475 1175 3900 
L 2175 3900 
Q 1900 4350 1525 4750 
Q 1700 4850 1875 5050 
Q 2350 4550 2575 4200 
Q 2400 4075 2250 3900 
L 3550 3900 
Q 3875 4700 3950 5100 
Q 4300 4925 4550 4850 
z
M 4600 2450 
L 4600 3525 
L 1650 3525 
L 1650 2450 
L 4600 2450 
z
M 2275 1450 
Q 2250 1050 2250 675 
Q 2250 300 2262 112 
Q 2275 -75 2675 -75 
L 4000 -75 
Q 4325 -75 4400 550 
Q 4650 400 4925 325 
Q 4775 -200 4562 -337 
Q 4350 -475 4000 -450 
L 2325 -450 
Q 1850 -450 1825 -175 
Q 1800 100 1800 525 
Q 1800 975 1775 1450 
L 2275 1450 
z
M 1350 1325 
Q 1050 300 825 -250 
Q 625 -150 375 -50 
Q 675 525 900 1500 
Q 1100 1425 1350 1325 
z
M 4950 1575 
Q 5700 825 6000 450 
Q 5825 275 5625 100 
Q 5375 450 4600 1275 
Q 4750 1375 4950 1575 
z
M 3350 575 
Q 2975 1175 2675 1500 
Q 2825 1650 3000 1800 
Q 3225 1575 3750 875 
Q 3525 775 3350 575 
z
" transform="scale(0.015625)"/>
      <path id="SimHei-5c3a" d="M 5450 4975 
Q 5425 4600 5425 4125 
L 5425 3200 
Q 5425 2750 5450 2375 
L 4925 2375 
L 4925 2750 
L 3525 2750 
Q 3725 1550 4487 887 
Q 5250 225 6100 100 
Q 5825 -225 5700 -600 
Q 4775 -275 4000 612 
Q 3225 1500 3025 2750 
L 1800 2750 
Q 1775 1600 1462 750 
Q 1150 -100 700 -700 
Q 500 -525 225 -275 
Q 600 75 887 737 
Q 1175 1400 1237 2125 
Q 1300 2850 1300 3625 
Q 1300 4400 1275 4975 
L 5450 4975 
z
M 4925 3225 
L 4925 4525 
L 1800 4525 
L 1800 3225 
L 4925 3225 
z
" transform="scale(0.015625)"/>
      <path id="SimHei-5bf8" d="M 4025 3725 
L 4025 4475 
Q 4025 4800 4000 5150 
L 4575 5150 
Q 4550 4775 4550 4475 
L 4550 3725 
L 5000 3725 
Q 5500 3725 6000 3750 
L 6000 3250 
Q 5500 3275 5025 3275 
L 4550 3275 
L 4550 425 
Q 4550 -225 4250 -362 
Q 3950 -500 3200 -575 
Q 3175 -250 3000 50 
Q 3925 25 3975 150 
Q 4025 275 4025 575 
L 4025 3275 
L 1525 3275 
Q 975 3275 450 3250 
L 450 3750 
Q 800 3725 1325 3725 
L 4025 3725 
z
M 1550 2675 
Q 2050 2075 2575 1125 
Q 2300 975 2075 800 
Q 1575 1725 1100 2350 
Q 1350 2525 1550 2675 
z
" transform="scale(0.015625)"/>
      <path id="SimHei-3a" d="M 1825 2425 
L 1250 2425 
L 1250 2975 
L 1825 2975 
L 1825 2425 
z
M 1825 125 
L 1250 125 
L 1250 675 
L 1825 675 
L 1825 125 
z
" transform="scale(0.015625)"/>
      <path id="SimHei-39" d="M 800 75 
Q 1350 1000 1700 1750 
Q 1075 1650 662 1912 
Q 250 2175 162 2625 
Q 75 3075 175 3437 
Q 275 3800 487 4037 
Q 700 4275 1000 4375 
Q 1300 4475 1537 4475 
Q 1775 4475 2025 4375 
Q 2275 4275 2475 4075 
Q 2675 3875 2750 3662 
Q 2825 3450 2825 3112 
Q 2825 2775 2575 2250 
Q 2325 1725 1350 75 
L 800 75 
z
M 662 2875 
Q 700 2550 937 2337 
Q 1175 2125 1450 2150 
Q 1725 2175 1887 2300 
Q 2050 2425 2200 2725 
Q 2300 3100 2250 3362 
Q 2200 3625 1987 3800 
Q 1775 3975 1525 3975 
Q 1375 4000 1137 3900 
Q 900 3800 762 3500 
Q 625 3200 662 2875 
z
" transform="scale(0.015625)"/>
     </defs>
     <use xlink:href="#SimHei-603b"/>
     <use xlink:href="#SimHei-5c3a" transform="translate(100 0)"/>
     <use xlink:href="#SimHei-5bf8" transform="translate(200 0)"/>
     <use xlink:href="#SimHei-6570" transform="translate(300 0)"/>
     <use xlink:href="#SimHei-3a" transform="translate(400 0)"/>
     <use xlink:href="#SimHei-20" transform="translate(450 0)"/>
     <use xlink:href="#SimHei-31" transform="translate(500 0)"/>
     <use xlink:href="#SimHei-39" transform="translate(550 0)"/>
     <use xlink:href="#SimHei-36" transform="translate(600 0)"/>
    </g>
    <!-- 弱相关 (|r|&lt;0.3): 100 (51.0%) -->
    <g transform="translate(469.500312 87.146675) scale(0.11 -0.11)">
     <defs>
      <path id="SimHei-5f31" d="M 4475 -100 
Q 4975 -75 5112 -25 
Q 5250 25 5262 137 
Q 5275 250 5300 1025 
Q 4100 600 3475 275 
Q 3425 525 3200 775 
Q 3675 875 4187 1050 
Q 4700 1225 5300 1450 
L 5300 2325 
L 3475 2325 
Q 3500 2775 3525 3137 
Q 3550 3500 3550 3875 
L 5300 3875 
L 5300 4600 
L 4325 4600 
Q 3975 4600 3450 4575 
L 3450 5000 
Q 3975 4975 4325 4975 
L 5750 4975 
Q 5725 4625 5725 4225 
Q 5725 3850 5750 3450 
L 4000 3450 
L 3950 2700 
L 5800 2700 
Q 5750 2150 5725 1187 
Q 5700 225 5675 -12 
Q 5650 -250 5475 -387 
Q 5300 -525 4675 -625 
Q 4650 -325 4475 -100 
z
M 1650 -100 
Q 2225 -75 2350 12 
Q 2475 100 2475 950 
Q 1250 450 750 150 
Q 625 425 450 600 
Q 850 750 1300 912 
Q 1750 1075 2475 1400 
L 2475 2325 
L 750 2325 
Q 800 2875 812 3200 
Q 825 3525 875 3875 
L 2475 3875 
L 2475 4600 
L 1600 4600 
Q 1075 4600 750 4550 
L 750 5000 
Q 1075 4975 1550 4975 
L 2950 4975 
Q 2925 4625 2925 4225 
Q 2925 3850 2950 3450 
L 1275 3450 
L 1225 2700 
L 2950 2700 
Q 2925 2125 2912 1100 
Q 2900 75 2850 -100 
Q 2800 -275 2612 -375 
Q 2425 -475 1875 -625 
Q 1800 -350 1650 -100 
z
M 3600 1925 
Q 3800 2025 3975 2175 
Q 4250 1850 4600 1425 
Q 4375 1350 4200 1175 
Q 3925 1650 3600 1925 
z
M 1200 2175 
Q 1475 1900 1825 1475 
Q 1650 1350 1500 1200 
Q 1125 1650 900 1900 
Q 1075 2050 1200 2175 
z
" transform="scale(0.015625)"/>
      <path id="SimHei-28" d="M 2975 -200 
L 2700 -475 
Q 2075 125 1762 775 
Q 1450 1425 1450 2250 
Q 1450 3075 1762 3725 
Q 2075 4375 2700 5000 
L 2975 4725 
Q 2400 4175 2112 3587 
Q 1825 3000 1825 2250 
Q 1825 1500 2112 912 
Q 2400 325 2975 -200 
z
" transform="scale(0.015625)"/>
      <path id="SimHei-3c" d="M 2950 250 
L 2725 -25 
L 200 2250 
L 2700 4550 
L 2950 4300 
L 700 2250 
L 2950 250 
z
" transform="scale(0.015625)"/>
      <path id="SimHei-33" d="M 250 1225 
L 700 1300 
Q 800 975 1025 762 
Q 1250 550 1587 562 
Q 1925 575 2125 837 
Q 2325 1100 2300 1437 
Q 2275 1775 2037 1962 
Q 1800 2150 1275 2225 
L 1275 2550 
Q 1800 2600 2037 2825 
Q 2275 3050 2250 3412 
Q 2225 3775 1925 3937 
Q 1625 4100 1287 3975 
Q 950 3850 750 3275 
L 300 3350 
Q 450 3800 712 4100 
Q 975 4400 1425 4450 
Q 1875 4500 2212 4337 
Q 2550 4175 2687 3837 
Q 2825 3500 2725 3100 
Q 2625 2700 2150 2400 
Q 2500 2250 2687 1950 
Q 2875 1650 2812 1162 
Q 2750 675 2375 375 
Q 2000 75 1525 87 
Q 1050 100 700 387 
Q 350 675 250 1225 
z
" transform="scale(0.015625)"/>
      <path id="SimHei-29" d="M 1675 2250 
Q 1675 1425 1362 775 
Q 1050 125 425 -475 
L 150 -200 
Q 725 325 1012 912 
Q 1300 1500 1300 2250 
Q 1300 3000 1012 3587 
Q 725 4175 150 4725 
L 425 5000 
Q 1050 4375 1362 3725 
Q 1675 3075 1675 2250 
z
" transform="scale(0.015625)"/>
      <path id="SimHei-35" d="M 550 1325 
Q 725 650 1150 575 
Q 1575 500 1837 662 
Q 2100 825 2212 1087 
Q 2325 1350 2312 1675 
Q 2300 2000 2137 2225 
Q 1975 2450 1725 2525 
Q 1475 2600 1162 2525 
Q 850 2450 650 2175 
L 225 2225 
Q 275 2375 700 4375 
L 2675 4375 
L 2675 3925 
L 1075 3925 
Q 950 3250 825 2850 
Q 1200 3025 1525 3012 
Q 1850 3000 2150 2862 
Q 2450 2725 2587 2487 
Q 2725 2250 2787 2012 
Q 2850 1775 2837 1500 
Q 2825 1225 2725 937 
Q 2625 650 2425 462 
Q 2225 275 1937 162 
Q 1650 50 1275 75 
Q 900 100 562 350 
Q 225 600 100 1200 
L 550 1325 
z
" transform="scale(0.015625)"/>
      <path id="SimHei-25" d="M 1400 3325 
Q 1400 2600 1187 2400 
Q 975 2200 775 2200 
Q 575 2200 362 2400 
Q 150 2600 150 3325 
Q 150 4050 362 4250 
Q 575 4450 775 4450 
Q 975 4450 1187 4250 
Q 1400 4050 1400 3325 
z
M 2625 4375 
L 700 75 
L 500 150 
L 2425 4450 
L 2625 4375 
z
M 2975 1200 
Q 2975 475 2762 275 
Q 2550 75 2350 75 
Q 2150 75 1937 275 
Q 1725 475 1725 1200 
Q 1725 1925 1937 2125 
Q 2150 2325 2350 2325 
Q 2550 2325 2762 2125 
Q 2975 1925 2975 1200 
z
M 1000 3325 
Q 1000 3775 950 3925 
Q 900 4075 775 4075 
Q 650 4075 600 3925 
Q 550 3775 550 3325 
Q 550 2875 600 2725 
Q 650 2575 775 2575 
Q 900 2575 950 2725 
Q 1000 2875 1000 3325 
z
M 2575 1200 
Q 2575 1650 2525 1800 
Q 2475 1950 2350 1950 
Q 2225 1950 2175 1800 
Q 2125 1650 2125 1200 
Q 2125 750 2175 600 
Q 2225 450 2350 450 
Q 2475 450 2525 600 
Q 2575 750 2575 1200 
z
" transform="scale(0.015625)"/>
     </defs>
     <use xlink:href="#SimHei-5f31"/>
     <use xlink:href="#SimHei-76f8" transform="translate(100 0)"/>
     <use xlink:href="#SimHei-5173" transform="translate(200 0)"/>
     <use xlink:href="#SimHei-20" transform="translate(300 0)"/>
     <use xlink:href="#SimHei-28" transform="translate(350 0)"/>
     <use xlink:href="#SimHei-7c" transform="translate(400 0)"/>
     <use xlink:href="#SimHei-72" transform="translate(450 0)"/>
     <use xlink:href="#SimHei-7c" transform="translate(500 0)"/>
     <use xlink:href="#SimHei-3c" transform="translate(550 0)"/>
     <use xlink:href="#SimHei-30" transform="translate(600 0)"/>
     <use xlink:href="#SimHei-2e" transform="translate(650 0)"/>
     <use xlink:href="#SimHei-33" transform="translate(700 0)"/>
     <use xlink:href="#SimHei-29" transform="translate(750 0)"/>
     <use xlink:href="#SimHei-3a" transform="translate(800 0)"/>
     <use xlink:href="#SimHei-20" transform="translate(850 0)"/>
     <use xlink:href="#SimHei-31" transform="translate(900 0)"/>
     <use xlink:href="#SimHei-30" transform="translate(950 0)"/>
     <use xlink:href="#SimHei-30" transform="translate(1000 0)"/>
     <use xlink:href="#SimHei-20" transform="translate(1050 0)"/>
     <use xlink:href="#SimHei-28" transform="translate(1100 0)"/>
     <use xlink:href="#SimHei-35" transform="translate(1150 0)"/>
     <use xlink:href="#SimHei-31" transform="translate(1200 0)"/>
     <use xlink:href="#SimHei-2e" transform="translate(1250 0)"/>
     <use xlink:href="#SimHei-30" transform="translate(1300 0)"/>
     <use xlink:href="#SimHei-25" transform="translate(1350 0)"/>
     <use xlink:href="#SimHei-29" transform="translate(1400 0)"/>
    </g>
    <!-- 中等相关 (0.3≤|r|&lt;0.8): 92 (46.9%) -->
    <g transform="translate(469.500312 99.951363) scale(0.11 -0.11)">
     <defs>
      <path id="SimHei-4e2d" d="M 3475 5200 
Q 3450 4500 3450 3875 
L 5625 3875 
Q 5600 3375 5600 2500 
Q 5600 1650 5625 1225 
L 5075 1225 
L 5075 1600 
L 3450 1600 
L 3450 525 
Q 3450 225 3475 -600 
L 2875 -600 
Q 2925 -150 2925 450 
L 2925 1600 
L 1300 1600 
L 1300 1225 
L 750 1225 
Q 775 1600 775 2500 
Q 775 3425 750 3875 
L 2925 3875 
Q 2925 4550 2900 5200 
L 3475 5200 
z
M 5075 2000 
L 5075 3475 
L 3450 3475 
L 3450 2000 
L 5075 2000 
z
M 2925 2000 
L 2925 3475 
L 1300 3475 
L 1300 2000 
L 2925 2000 
z
" transform="scale(0.015625)"/>
      <path id="SimHei-7b49" d="M 2925 3450 
Q 2925 3625 2900 3950 
L 3450 3950 
Q 3425 3625 3425 3450 
L 4475 3450 
Q 4850 3450 5350 3475 
L 5350 3050 
Q 4875 3075 4500 3075 
L 3425 3075 
L 3425 2400 
L 5225 2400 
Q 5625 2400 6125 2425 
L 6125 1975 
Q 5650 2000 5225 2000 
L 4700 2000 
L 4700 1350 
Q 5325 1350 5750 1375 
L 5750 925 
Q 5250 950 4700 950 
L 4700 125 
Q 4725 -325 4437 -437 
Q 4150 -550 3550 -625 
Q 3500 -325 3350 -75 
Q 3775 -100 3975 -75 
Q 4175 -50 4175 275 
L 4175 950 
L 1550 950 
Q 1225 950 700 925 
L 700 1375 
Q 1200 1350 1650 1350 
L 4175 1350 
L 4175 2000 
L 1075 2000 
Q 750 2000 200 1975 
L 200 2425 
Q 750 2400 1075 2400 
L 2925 2400 
L 2925 3075 
L 1925 3075 
Q 1575 3075 1050 3050 
L 1050 3475 
Q 1725 3450 1925 3450 
L 2925 3450 
z
M 1825 5100 
Q 1675 5000 1500 4725 
L 2400 4725 
Q 2925 4725 3275 4750 
L 3275 4350 
Q 3000 4375 2575 4375 
L 2275 4375 
Q 2400 4175 2575 3850 
Q 2275 3750 2025 3675 
Q 2025 3725 1775 4375 
L 1325 4375 
Q 1125 4075 750 3625 
Q 525 3800 275 3900 
Q 625 4175 850 4525 
Q 1075 4875 1250 5300 
Q 1550 5175 1825 5100 
z
M 3700 3875 
Q 3500 4000 3225 4075 
Q 3475 4275 3650 4575 
Q 3825 4875 3975 5250 
Q 4250 5150 4550 5050 
Q 4350 4875 4250 4700 
L 5275 4700 
Q 5450 4700 6125 4725 
L 6125 4325 
Q 5650 4350 5200 4350 
Q 5475 3900 5600 3725 
Q 5250 3650 5025 3575 
Q 4975 3800 4700 4350 
L 4050 4350 
Q 3925 4150 3700 3875 
z
M 2575 75 
Q 2350 -50 2125 -200 
Q 1900 225 1525 625 
Q 1700 725 1925 900 
Q 2300 500 2575 75 
z
" transform="scale(0.015625)"/>
      <path id="SimHei-2264" d="M 5675 275 
L 5600 -75 
L 700 1575 
L 775 1900 
L 5675 275 
z
M 5675 4375 
L 1525 2975 
L 5675 1625 
L 5600 1250 
L 700 2925 
L 700 3050 
L 5575 4700 
L 5675 4375 
z
" transform="scale(0.015625)"/>
     </defs>
     <use xlink:href="#SimHei-4e2d"/>
     <use xlink:href="#SimHei-7b49" transform="translate(100 0)"/>
     <use xlink:href="#SimHei-76f8" transform="translate(200 0)"/>
     <use xlink:href="#SimHei-5173" transform="translate(300 0)"/>
     <use xlink:href="#SimHei-20" transform="translate(400 0)"/>
     <use xlink:href="#SimHei-28" transform="translate(450 0)"/>
     <use xlink:href="#SimHei-30" transform="translate(500 0)"/>
     <use xlink:href="#SimHei-2e" transform="translate(550 0)"/>
     <use xlink:href="#SimHei-33" transform="translate(600 0)"/>
     <use xlink:href="#SimHei-2264" transform="translate(650 0)"/>
     <use xlink:href="#SimHei-7c" transform="translate(750 0)"/>
     <use xlink:href="#SimHei-72" transform="translate(800 0)"/>
     <use xlink:href="#SimHei-7c" transform="translate(850 0)"/>
     <use xlink:href="#SimHei-3c" transform="translate(900 0)"/>
     <use xlink:href="#SimHei-30" transform="translate(950 0)"/>
     <use xlink:href="#SimHei-2e" transform="translate(1000 0)"/>
     <use xlink:href="#SimHei-38" transform="translate(1050 0)"/>
     <use xlink:href="#SimHei-29" transform="translate(1100 0)"/>
     <use xlink:href="#SimHei-3a" transform="translate(1150 0)"/>
     <use xlink:href="#SimHei-20" transform="translate(1200 0)"/>
     <use xlink:href="#SimHei-39" transform="translate(1250 0)"/>
     <use xlink:href="#SimHei-32" transform="translate(1300 0)"/>
     <use xlink:href="#SimHei-20" transform="translate(1350 0)"/>
     <use xlink:href="#SimHei-28" transform="translate(1400 0)"/>
     <use xlink:href="#SimHei-34" transform="translate(1450 0)"/>
     <use xlink:href="#SimHei-36" transform="translate(1500 0)"/>
     <use xlink:href="#SimHei-2e" transform="translate(1550 0)"/>
     <use xlink:href="#SimHei-39" transform="translate(1600 0)"/>
     <use xlink:href="#SimHei-25" transform="translate(1650 0)"/>
     <use xlink:href="#SimHei-29" transform="translate(1700 0)"/>
    </g>
    <!-- 强相关 (|r|≥0.8): 4 (2.0%) -->
    <g transform="translate(469.500312 112.75605) scale(0.11 -0.11)">
     <defs>
      <path id="SimHei-5f3a" d="M 2350 25 
Q 3100 75 3950 225 
L 3950 1200 
L 3100 1200 
L 3100 975 
L 2625 975 
Q 2650 1725 2650 2050 
L 2650 2875 
L 3950 2875 
L 3950 3500 
L 2850 3500 
Q 2875 3900 2875 4275 
Q 2875 4675 2850 5025 
L 5525 5025 
Q 5500 4675 5500 4275 
Q 5500 3900 5525 3500 
L 4400 3500 
L 4400 2875 
L 5750 2875 
Q 5725 2575 5725 2075 
Q 5725 1575 5750 1200 
L 4400 1200 
L 4400 275 
L 5250 425 
Q 5150 575 5050 750 
Q 5300 825 5475 925 
Q 5925 200 6175 -250 
Q 5925 -350 5725 -500 
Q 5625 -250 5425 100 
Q 5125 50 4225 -137 
Q 3325 -325 2600 -525 
Q 2525 -200 2350 25 
z
M 600 -25 
Q 1250 -25 1400 50 
Q 1550 125 1575 325 
L 1675 1850 
L 500 1850 
Q 550 2350 562 2762 
Q 575 3175 575 3575 
L 1800 3575 
L 1800 4550 
L 1275 4550 
Q 825 4550 425 4525 
L 425 4950 
Q 850 4925 1275 4925 
L 2275 4925 
Q 2250 4525 2250 4075 
Q 2250 3650 2275 3200 
L 1075 3200 
L 1025 2225 
L 2175 2225 
Q 2125 1775 2100 1425 
L 2025 150 
Q 1975 -250 1637 -387 
Q 1300 -525 850 -600 
Q 775 -275 600 -25 
z
M 5050 3875 
L 5050 4650 
L 3325 4650 
L 3325 3875 
L 5050 3875 
z
M 3950 1575 
L 3950 2500 
L 3100 2500 
L 3100 1575 
L 3950 1575 
z
M 5250 1575 
L 5250 2500 
L 4400 2500 
L 4400 1575 
L 5250 1575 
z
" transform="scale(0.015625)"/>
      <path id="SimHei-2265" d="M 1050 -25 
L 975 325 
L 5625 1900 
L 5700 1575 
L 1050 -25 
z
M 875 1750 
L 4775 3000 
L 925 4400 
L 1025 4725 
L 5675 3075 
L 5675 2950 
L 975 1400 
L 875 1750 
z
" transform="scale(0.015625)"/>
     </defs>
     <use xlink:href="#SimHei-5f3a"/>
     <use xlink:href="#SimHei-76f8" transform="translate(100 0)"/>
     <use xlink:href="#SimHei-5173" transform="translate(200 0)"/>
     <use xlink:href="#SimHei-20" transform="translate(300 0)"/>
     <use xlink:href="#SimHei-28" transform="translate(350 0)"/>
     <use xlink:href="#SimHei-7c" transform="translate(400 0)"/>
     <use xlink:href="#SimHei-72" transform="translate(450 0)"/>
     <use xlink:href="#SimHei-7c" transform="translate(500 0)"/>
     <use xlink:href="#SimHei-2265" transform="translate(550 0)"/>
     <use xlink:href="#SimHei-30" transform="translate(650 0)"/>
     <use xlink:href="#SimHei-2e" transform="translate(700 0)"/>
     <use xlink:href="#SimHei-38" transform="translate(750 0)"/>
     <use xlink:href="#SimHei-29" transform="translate(800 0)"/>
     <use xlink:href="#SimHei-3a" transform="translate(850 0)"/>
     <use xlink:href="#SimHei-20" transform="translate(900 0)"/>
     <use xlink:href="#SimHei-34" transform="translate(950 0)"/>
     <use xlink:href="#SimHei-20" transform="translate(1000 0)"/>
     <use xlink:href="#SimHei-28" transform="translate(1050 0)"/>
     <use xlink:href="#SimHei-32" transform="translate(1100 0)"/>
     <use xlink:href="#SimHei-2e" transform="translate(1150 0)"/>
     <use xlink:href="#SimHei-30" transform="translate(1200 0)"/>
     <use xlink:href="#SimHei-25" transform="translate(1250 0)"/>
     <use xlink:href="#SimHei-29" transform="translate(1300 0)"/>
    </g>
   </g>
   <g id="text_19">
    <!-- 相关性分布密度图 -->
    <g transform="translate(315.604687 18.575) scale(0.14 -0.14)">
     <defs>
      <path id="SimHei-6027" d="M 3450 4525 
Q 3325 4075 3275 3750 
L 4050 3750 
L 4050 4275 
Q 4050 4700 4025 5100 
L 4550 5100 
Q 4525 4700 4525 4275 
L 4525 3750 
L 5025 3750 
Q 5350 3750 5800 3775 
L 5800 3300 
Q 5350 3325 5025 3325 
L 4525 3325 
L 4525 2000 
L 4975 2000 
Q 5350 2000 5725 2025 
L 5725 1550 
Q 5350 1575 4975 1575 
L 4525 1575 
L 4525 25 
L 5200 25 
Q 5625 25 6025 50 
L 6025 -400 
Q 5625 -375 5200 -375 
L 3275 -375 
Q 2825 -375 2400 -400 
L 2400 50 
Q 2825 25 3250 25 
L 4050 25 
L 4050 1575 
L 3625 1575 
Q 3300 1575 2875 1550 
L 2875 2025 
Q 3200 2000 3625 2000 
L 4050 2000 
L 4050 3325 
L 3175 3325 
Q 3100 2950 2775 2225 
Q 2500 2375 2325 2400 
Q 2675 3125 2775 3650 
Q 2875 4175 2950 4650 
Q 3200 4575 3450 4525 
z
M 1700 5150 
Q 1675 4650 1675 4175 
L 1675 425 
Q 1675 -100 1700 -625 
L 1175 -625 
Q 1200 -100 1200 425 
L 1200 4175 
Q 1200 4700 1175 5150 
L 1700 5150 
z
M 975 3725 
Q 825 2675 700 2150 
Q 450 2200 250 2250 
Q 425 2900 525 3800 
Q 725 3775 975 3725 
z
M 2125 4025 
Q 2325 3625 2525 3000 
Q 2300 2925 2125 2825 
Q 1950 3375 1750 3850 
Q 1950 3950 2125 4025 
z
" transform="scale(0.015625)"/>
      <path id="SimHei-5206" d="M 1000 -650 
Q 825 -375 575 -225 
Q 975 -75 1300 137 
Q 1625 350 1875 662 
Q 2125 975 2250 1350 
Q 2375 1725 2425 2275 
Q 1850 2275 1500 2250 
L 1500 2775 
Q 1900 2750 2525 2750 
L 5025 2750 
Q 4975 2375 4950 2100 
L 4750 250 
Q 4700 -200 4350 -350 
Q 4000 -500 3575 -525 
Q 3550 -275 3325 50 
Q 3850 25 4037 87 
Q 4225 150 4275 525 
L 4450 2275 
L 2950 2275 
Q 2875 1625 2737 1187 
Q 2600 750 2350 425 
Q 2100 100 1750 -175 
Q 1400 -450 1000 -650 
z
M 3950 5175 
Q 4125 4650 4662 3975 
Q 5200 3300 6175 2800 
Q 5975 2625 5775 2275 
Q 5325 2600 4987 2887 
Q 4650 3175 4425 3425 
Q 4200 3675 3925 4137 
Q 3650 4600 3475 5000 
Q 3750 5075 3950 5175 
z
M 2700 4825 
Q 2475 4425 2325 4125 
Q 2175 3825 2025 3587 
Q 1875 3350 1575 2950 
Q 1275 2550 850 2125 
Q 625 2350 400 2475 
Q 900 2925 1187 3300 
Q 1475 3675 1737 4112 
Q 2000 4550 2200 5075 
Q 2400 4925 2700 4825 
z
" transform="scale(0.015625)"/>
      <path id="SimHei-5e03" d="M 2375 4225 
Q 2650 4775 2775 5300 
Q 3125 5175 3400 5075 
Q 3275 4975 2950 4225 
L 4800 4225 
Q 5550 4225 6025 4250 
L 6025 3800 
L 2725 3800 
Q 2325 3100 1975 2675 
L 3275 2675 
Q 3275 3225 3250 3575 
L 3775 3575 
Q 3750 3225 3750 2675 
L 5500 2675 
Q 5475 2225 5475 1775 
L 5475 750 
Q 5475 275 5212 150 
Q 4950 25 4450 -25 
Q 4400 325 4225 550 
Q 4800 550 4912 625 
Q 5025 700 5000 1025 
L 5000 2250 
L 3750 2250 
L 3750 550 
Q 3750 25 3775 -600 
L 3250 -600 
Q 3275 25 3275 550 
L 3275 2250 
L 2100 2250 
L 2100 0 
L 1600 0 
Q 1625 525 1625 1025 
L 1625 2225 
Q 1300 1850 650 1275 
Q 475 1475 200 1650 
Q 750 2025 1262 2562 
Q 1775 3100 2150 3800 
L 1550 3800 
Q 925 3800 400 3775 
L 400 4250 
Q 925 4225 1550 4225 
L 2375 4225 
z
" transform="scale(0.015625)"/>
      <path id="SimHei-56fe" d="M 5800 4975 
Q 5775 4350 5775 3600 
L 5775 925 
Q 5775 150 5800 -600 
L 5300 -600 
L 5300 -275 
L 1125 -275 
L 1125 -650 
L 625 -650 
Q 650 125 650 950 
L 650 3600 
Q 650 4325 625 4975 
L 5800 4975 
z
M 5300 150 
L 5300 4575 
L 1125 4575 
L 1125 150 
L 5300 150 
z
M 3225 4250 
Q 3075 4100 2950 3925 
L 4625 3925 
Q 4525 3700 4300 3375 
Q 4075 3050 3600 2600 
Q 4350 2225 5075 2150 
Q 4900 1925 4775 1675 
Q 3850 1950 3225 2350 
Q 2500 1875 1675 1650 
Q 1600 1875 1400 2075 
Q 2200 2200 2875 2600 
Q 2525 2925 2375 3150 
Q 2150 2900 1900 2650 
Q 1725 2850 1525 2950 
Q 1950 3300 2250 3737 
Q 2550 4175 2675 4475 
Q 2925 4350 3225 4250 
z
M 2450 1275 
Q 3550 950 4100 725 
Q 3975 525 3850 300 
Q 2825 725 2275 850 
Q 2375 1050 2450 1275 
z
M 2925 2050 
Q 3775 1700 4075 1600 
Q 3950 1400 3850 1150 
Q 3000 1550 2700 1650 
Q 2825 1825 2925 2050 
z
M 2625 3450 
Q 3000 3025 3275 2850 
Q 3600 3100 3875 3525 
L 2675 3525 
L 2625 3450 
z
" transform="scale(0.015625)"/>
     </defs>
     <use xlink:href="#SimHei-76f8"/>
     <use xlink:href="#SimHei-5173" transform="translate(100 0)"/>
     <use xlink:href="#SimHei-6027" transform="translate(200 0)"/>
     <use xlink:href="#SimHei-5206" transform="translate(300 0)"/>
     <use xlink:href="#SimHei-5e03" transform="translate(400 0)"/>
     <use xlink:href="#SimHei-5bc6" transform="translate(500 0)"/>
     <use xlink:href="#SimHei-5ea6" transform="translate(600 0)"/>
     <use xlink:href="#SimHei-56fe" transform="translate(700 0)"/>
    </g>
    <!-- ("关键少数 + 大多数"分布特征) -->
    <g transform="translate(270.104687 33.975) scale(0.14 -0.14)">
     <defs>
      <path id="SimHei-22" d="M 1400 4525 
Q 1325 4200 1300 3875 
L 1250 3225 
L 875 3225 
L 850 4025 
Q 825 4275 800 4525 
L 1400 4525 
z
M 2400 4525 
Q 2325 4200 2300 3875 
L 2250 3225 
L 1875 3225 
L 1850 4025 
Q 1825 4275 1800 4525 
L 2400 4525 
z
" transform="scale(0.015625)"/>
      <path id="SimHei-952e" d="M 5675 3750 
Q 5825 3750 6075 3775 
L 6075 3325 
Q 5825 3350 5675 3350 
Q 5675 2650 5700 2450 
L 4700 2450 
L 4700 1975 
L 5200 1975 
Q 5400 1975 5650 2000 
L 5650 1575 
Q 5550 1600 5225 1600 
L 4700 1600 
L 4700 1075 
L 5375 1075 
Q 5575 1100 5825 1100 
L 5825 675 
Q 5550 700 5350 700 
L 4700 700 
L 4700 -50 
Q 5425 -100 6150 0 
Q 6025 -225 6000 -500 
Q 5125 -525 4562 -462 
Q 4000 -400 3637 -300 
Q 3275 -200 2875 175 
Q 2650 -250 2225 -625 
Q 2025 -425 1850 -275 
Q 2275 -25 2575 450 
Q 2250 950 2125 1700 
Q 2350 1750 2550 1800 
Q 2600 1325 2750 925 
Q 2900 1650 2925 2400 
Q 2500 2400 2250 2275 
Q 2150 2500 2075 2675 
Q 2300 2775 2462 3212 
Q 2625 3650 2750 4200 
Q 2475 4200 2125 4175 
L 2125 4625 
Q 2450 4600 2675 4600 
L 3300 4600 
Q 3225 4300 3075 3837 
Q 2925 3375 2750 2775 
L 3375 2775 
Q 3325 2275 3275 1725 
Q 3225 1175 3025 525 
Q 3375 225 3650 137 
Q 3925 50 4275 -25 
L 4275 700 
Q 3875 700 3425 675 
L 3425 1100 
Q 3925 1075 4275 1075 
L 4275 1600 
Q 3950 1600 3550 1575 
L 3550 2000 
Q 3950 1975 4275 1975 
L 4275 2450 
Q 3900 2450 3650 2400 
L 3650 2850 
Q 3950 2825 4275 2825 
L 4275 3375 
L 3725 3375 
Q 3525 3375 3350 3350 
L 3350 3775 
Q 3550 3750 3725 3750 
L 4275 3750 
L 4275 4250 
Q 4000 4250 3625 4225 
L 3625 4650 
Q 3950 4625 4300 4625 
Q 4300 5025 4275 5200 
L 4725 5200 
Q 4700 5000 4700 4625 
L 5725 4625 
Q 5675 4375 5675 3750 
z
M 2200 600 
Q 1925 400 1662 162 
Q 1400 -75 1125 -375 
Q 975 -200 775 0 
Q 975 200 1000 400 
L 1000 1625 
Q 825 1625 450 1600 
L 450 2025 
Q 800 2000 1000 2000 
L 1000 2800 
Q 875 2800 700 2775 
L 700 3200 
Q 1025 3175 1325 3175 
Q 1650 3175 2050 3225 
L 2050 2800 
Q 1625 2825 1400 2825 
L 1400 2025 
Q 1700 2025 1975 2050 
L 1975 1625 
Q 1650 1650 1400 1650 
L 1400 525 
Q 1750 800 1900 1000 
Q 1975 850 2200 600 
z
M 1025 3875 
Q 825 3575 500 3175 
Q 350 3350 175 3525 
Q 400 3700 675 4162 
Q 950 4625 1150 5200 
Q 1300 5125 1650 4975 
Q 1450 4650 1250 4275 
Q 1675 4275 2000 4300 
L 2000 3850 
Q 1625 3875 1025 3875 
z
M 5250 2825 
L 5250 3375 
L 4700 3375 
L 4700 2825 
L 5250 2825 
z
M 5250 3750 
L 5250 4250 
L 4700 4250 
L 4700 3750 
L 5250 3750 
z
" transform="scale(0.015625)"/>
      <path id="SimHei-5c11" d="M 5375 1875 
Q 4775 1225 4250 775 
Q 3725 325 2937 -12 
Q 2150 -350 825 -550 
Q 750 -225 500 -50 
Q 1225 -25 2225 262 
Q 3225 550 3900 1137 
Q 4575 1725 4850 2225 
Q 5050 2000 5375 1875 
z
M 3425 5125 
Q 3400 4750 3400 4150 
L 3400 2400 
Q 3400 1950 3425 1350 
L 2875 1350 
Q 2900 1950 2900 2400 
L 2900 4150 
Q 2900 4725 2850 5125 
L 3425 5125 
z
M 2275 3875 
Q 2100 3650 1712 3112 
Q 1325 2575 775 1825 
Q 600 2025 325 2150 
Q 925 2775 1275 3312 
Q 1625 3850 1750 4175 
Q 2025 3975 2275 3875 
z
M 4400 4225 
Q 5500 3350 6025 2800 
Q 5775 2650 5600 2425 
Q 5200 2950 4050 3850 
Q 4300 4025 4400 4225 
z
" transform="scale(0.015625)"/>
      <path id="SimHei-2b" d="M 3000 2125 
L 1775 2125 
L 1775 900 
L 1350 900 
L 1350 2125 
L 125 2125 
L 125 2525 
L 1350 2525 
L 1350 3750 
L 1775 3750 
L 1775 2525 
L 3000 2525 
L 3000 2125 
z
" transform="scale(0.015625)"/>
      <path id="SimHei-5927" d="M 2900 3400 
Q 2925 4275 2912 4575 
Q 2900 4875 2875 5150 
Q 3175 5100 3550 5075 
Q 3475 4825 3437 4350 
Q 3400 3875 3400 3400 
L 4675 3400 
Q 5350 3400 5925 3450 
L 5925 2900 
Q 5425 2925 4900 2925 
L 3425 2925 
Q 3525 2500 3775 2062 
Q 4025 1625 4287 1287 
Q 4550 950 5012 575 
Q 5475 200 6025 -50 
Q 5825 -200 5625 -550 
Q 5175 -300 4737 75 
Q 4300 450 3862 1062 
Q 3425 1675 3200 2200 
Q 3000 1650 2775 1287 
Q 2550 925 2287 625 
Q 2025 325 1612 25 
Q 1200 -275 675 -575 
Q 475 -275 225 -50 
Q 750 125 1262 450 
Q 1775 775 2100 1187 
Q 2425 1600 2625 2050 
Q 2825 2500 2875 2925 
L 1500 2925 
Q 900 2925 550 2900 
L 550 3450 
Q 900 3425 1500 3400 
L 2900 3400 
z
" transform="scale(0.015625)"/>
      <path id="SimHei-591a" d="M 3800 2950 
Q 4000 2750 4275 2650 
Q 4050 2450 3850 2275 
L 5925 2275 
Q 5625 1525 5137 975 
Q 4650 425 4050 125 
Q 3450 -175 2725 -375 
Q 2000 -575 950 -675 
Q 850 -400 650 -150 
Q 1275 -175 2137 -25 
Q 3000 125 3700 450 
Q 3250 900 2950 1175 
Q 3150 1325 3300 1500 
Q 3650 1150 4100 675 
Q 4425 875 4712 1187 
Q 5000 1500 5200 1900 
L 3475 1900 
Q 3225 1700 2775 1412 
Q 2325 1125 1525 775 
Q 1400 1025 1200 1175 
Q 2025 1425 2762 1950 
Q 3500 2475 3800 2950 
z
M 900 1850 
Q 800 2100 575 2325 
Q 1050 2350 1725 2525 
Q 2400 2700 2775 2900 
Q 2475 3300 2100 3600 
Q 2300 3750 2425 3925 
Q 2900 3475 3200 3125 
Q 3575 3350 3875 3612 
Q 4175 3875 4400 4175 
L 2250 4175 
Q 1725 3725 1025 3275 
Q 875 3500 650 3625 
Q 1325 3925 1875 4400 
Q 2425 4875 2600 5225 
Q 2800 5075 3025 4925 
Q 2900 4825 2625 4550 
L 5225 4550 
Q 4500 3500 3800 3025 
Q 3100 2550 2437 2312 
Q 1775 2075 900 1850 
z
" transform="scale(0.015625)"/>
      <path id="SimHei-7279" d="M 4050 3150 
L 4050 4050 
L 3675 4050 
Q 3275 4050 2975 4025 
L 2975 4475 
Q 3250 4450 3675 4450 
L 4050 4450 
Q 4050 4950 4000 5200 
L 4525 5200 
Q 4500 4950 4500 4450 
L 5075 4450 
Q 5450 4450 5800 4475 
L 5800 4025 
Q 5550 4050 5075 4050 
L 4500 4050 
L 4500 3150 
L 5450 3150 
Q 5825 3150 6150 3175 
L 6150 2725 
Q 5850 2750 5500 2750 
L 5275 2750 
L 5275 2000 
Q 5825 2000 6100 2025 
L 6100 1550 
Q 5800 1575 5275 1575 
L 5275 -75 
Q 5250 -375 5050 -487 
Q 4850 -600 4275 -675 
Q 4225 -375 4075 -100 
Q 4525 -125 4675 -100 
Q 4825 -75 4825 150 
L 4825 1575 
L 3600 1575 
Q 3175 1575 2850 1550 
L 2850 2025 
Q 3125 2000 3600 2000 
L 4825 2000 
L 4825 2750 
L 3575 2750 
Q 3125 2750 2775 2725 
L 2775 3175 
Q 3125 3150 3550 3150 
L 4050 3150 
z
M 1150 4275 
Q 1050 4125 950 3600 
L 1500 3600 
L 1500 4425 
Q 1500 4800 1475 5200 
L 2000 5200 
Q 1950 4825 1950 4425 
L 1950 3600 
Q 2300 3600 2600 3625 
L 2600 3175 
Q 2325 3200 1950 3200 
L 1950 2075 
Q 2275 2200 2575 2325 
Q 2600 2125 2650 1900 
Q 2375 1800 1950 1625 
L 1950 225 
Q 1950 -175 1975 -650 
L 1475 -650 
Q 1500 -200 1500 225 
L 1500 1450 
Q 850 1200 550 1025 
Q 450 1275 275 1550 
Q 600 1575 1500 1925 
L 1500 3200 
L 850 3200 
Q 750 2775 675 2450 
Q 425 2550 225 2600 
Q 350 2950 462 3487 
Q 575 4025 600 4400 
Q 900 4325 1150 4275 
z
M 3600 1200 
Q 3800 750 3975 325 
Q 3750 275 3500 150 
Q 3325 675 3125 1025 
Q 3375 1100 3600 1200 
z
" transform="scale(0.015625)"/>
      <path id="SimHei-5f81" d="M 5050 4650 
Q 5575 4650 5975 4675 
L 5975 4175 
Q 5575 4200 5050 4200 
L 4450 4200 
L 4450 2625 
L 5000 2625 
Q 5475 2625 5875 2650 
L 5875 2175 
Q 5475 2200 5000 2200 
L 4450 2200 
L 4450 200 
L 5100 200 
Q 5575 200 6125 225 
L 6125 -250 
Q 5575 -225 5100 -225 
L 2875 -225 
Q 2275 -225 1875 -250 
L 1875 225 
Q 2225 200 2650 200 
L 2650 2100 
Q 2650 2475 2625 2925 
L 3175 2925 
Q 3150 2500 3150 2100 
L 3150 200 
L 3925 200 
L 3925 4200 
L 3425 4200 
Q 2850 4200 2425 4175 
L 2425 4675 
Q 2850 4650 3425 4650 
L 5050 4650 
z
M 2250 3450 
Q 2100 3225 1625 2575 
L 1625 450 
Q 1625 -100 1650 -700 
L 1100 -700 
Q 1125 -100 1125 450 
L 1125 2000 
Q 825 1600 550 1300 
Q 425 1550 225 1725 
Q 675 2150 1062 2650 
Q 1450 3150 1725 3775 
Q 1950 3625 2250 3450 
z
M 250 3675 
Q 675 3975 1025 4412 
Q 1375 4850 1550 5275 
Q 1825 5125 2125 4975 
Q 1900 4725 1487 4212 
Q 1075 3700 675 3275 
Q 475 3475 250 3675 
z
" transform="scale(0.015625)"/>
     </defs>
     <use xlink:href="#SimHei-28"/>
     <use xlink:href="#SimHei-22" transform="translate(50 0)"/>
     <use xlink:href="#SimHei-5173" transform="translate(100 0)"/>
     <use xlink:href="#SimHei-952e" transform="translate(200 0)"/>
     <use xlink:href="#SimHei-5c11" transform="translate(300 0)"/>
     <use xlink:href="#SimHei-6570" transform="translate(400 0)"/>
     <use xlink:href="#SimHei-20" transform="translate(500 0)"/>
     <use xlink:href="#SimHei-2b" transform="translate(550 0)"/>
     <use xlink:href="#SimHei-20" transform="translate(600 0)"/>
     <use xlink:href="#SimHei-5927" transform="translate(650 0)"/>
     <use xlink:href="#SimHei-591a" transform="translate(750 0)"/>
     <use xlink:href="#SimHei-6570" transform="translate(850 0)"/>
     <use xlink:href="#SimHei-22" transform="translate(950 0)"/>
     <use xlink:href="#SimHei-5206" transform="translate(1000 0)"/>
     <use xlink:href="#SimHei-5e03" transform="translate(1100 0)"/>
     <use xlink:href="#SimHei-7279" transform="translate(1200 0)"/>
     <use xlink:href="#SimHei-5f81" transform="translate(1300 0)"/>
     <use xlink:href="#SimHei-29" transform="translate(1400 0)"/>
    </g>
   </g>
   <g id="legend_1">
    <g id="patch_8">
     <path d="M 52.285938 158.771875 
L 199.285937 158.771875 
Q 201.285937 158.771875 201.285937 156.771875 
L 201.285937 55.975 
Q 201.285937 53.975 199.285937 53.975 
L 52.285938 53.975 
Q 50.285938 53.975 50.285938 55.975 
L 50.285938 156.771875 
Q 50.285938 158.771875 52.285938 158.771875 
z
" style="fill: #ffffff; opacity: 0.8; stroke: #cccccc; stroke-linejoin: miter"/>
    </g>
    <g id="patch_9">
     <path d="M 54.285938 66.1 
L 74.285938 66.1 
L 74.285938 59.1 
L 54.285938 59.1 
z
" style="fill: #4682b4; fill-opacity: 0.3; stroke: #4682b4; stroke-opacity: 0.3; stroke-linejoin: miter"/>
    </g>
    <g id="text_20">
     <!-- 相关性分布密度 -->
     <g transform="translate(82.285938 66.1) scale(0.1 -0.1)">
      <use xlink:href="#SimHei-76f8"/>
      <use xlink:href="#SimHei-5173" transform="translate(100 0)"/>
      <use xlink:href="#SimHei-6027" transform="translate(200 0)"/>
      <use xlink:href="#SimHei-5206" transform="translate(300 0)"/>
      <use xlink:href="#SimHei-5e03" transform="translate(400 0)"/>
      <use xlink:href="#SimHei-5bc6" transform="translate(500 0)"/>
      <use xlink:href="#SimHei-5ea6" transform="translate(600 0)"/>
     </g>
    </g>
    <g id="line2d_36">
     <path d="M 54.285938 76.975 
L 64.285938 76.975 
L 74.285938 76.975 
" style="fill: none; stroke: #0000ff; stroke-width: 2.5; stroke-linecap: square"/>
    </g>
    <g id="text_21">
     <!-- 密度曲线 -->
     <g transform="translate(82.285938 80.475) scale(0.1 -0.1)">
      <defs>
       <path id="SimHei-66f2" d="M 5825 500 
Q 5825 -200 5850 -550 
L 5275 -550 
L 5275 -50 
L 1150 -50 
L 1150 -550 
L 575 -550 
Q 600 125 600 550 
L 600 2775 
Q 600 3425 575 3900 
L 2150 3900 
L 2150 4450 
Q 2125 4850 2125 5150 
L 2700 5150 
Q 2650 4825 2650 4475 
L 2650 3900 
L 3700 3900 
L 3700 4525 
Q 3700 4850 3675 5175 
L 4250 5175 
Q 4225 4875 4225 4550 
L 4225 3900 
L 5850 3900 
Q 5825 3525 5825 2750 
L 5825 500 
z
M 3700 325 
L 3700 1875 
L 2650 1875 
L 2650 325 
L 3700 325 
z
M 5275 325 
L 5275 1875 
L 4225 1875 
L 4225 325 
L 5275 325 
z
M 2150 325 
L 2150 1875 
L 1150 1875 
L 1150 325 
L 2150 325 
z
M 3700 2250 
L 3700 3525 
L 2650 3525 
L 2650 2250 
L 3700 2250 
z
M 5275 2250 
L 5275 3525 
L 4225 3525 
L 4225 2250 
L 5275 2250 
z
M 2150 2250 
L 2150 3525 
L 1150 3525 
L 1150 2250 
L 2150 2250 
z
" transform="scale(0.015625)"/>
       <path id="SimHei-7ebf" d="M 3450 4300 
Q 3450 4675 3375 5125 
Q 3700 5100 4050 5050 
Q 3975 4900 3950 4562 
Q 3925 4225 3950 3600 
L 4800 3750 
Q 5225 3850 5650 3975 
L 5750 3500 
Q 5325 3450 4875 3375 
L 3975 3200 
Q 3975 2800 4025 2500 
L 5000 2675 
Q 5500 2775 5950 2925 
L 6025 2450 
Q 5575 2375 5075 2275 
L 4100 2100 
Q 4150 1600 4350 1175 
Q 4575 1350 4787 1575 
Q 5000 1800 5175 2075 
Q 5550 1775 5750 1675 
Q 5425 1525 5237 1337 
Q 5050 1150 4625 750 
Q 4925 250 5162 112 
Q 5400 -25 5500 100 
Q 5600 225 5675 625 
Q 5900 450 6200 350 
Q 5775 -750 5275 -537 
Q 4775 -325 4225 450 
Q 3875 175 3537 -62 
Q 3200 -300 2700 -550 
Q 2575 -300 2325 -100 
Q 2825 75 3175 275 
Q 3525 475 3975 850 
Q 3750 1350 3650 2025 
Q 2900 1900 2600 1800 
L 2525 2275 
Q 2825 2275 3550 2425 
Q 3500 2825 3500 3100 
Q 2825 2950 2575 2875 
L 2475 3350 
Q 2725 3350 3450 3500 
L 3450 4300 
z
M 1950 4875 
Q 1700 4650 1462 4237 
Q 1225 3825 825 3225 
Q 1425 3250 1650 3250 
Q 1875 3625 2050 4075 
Q 2300 3900 2600 3800 
Q 2350 3550 2087 3125 
Q 1825 2700 1175 1675 
Q 1850 1725 2375 1775 
Q 2300 1525 2300 1350 
Q 2125 1350 1525 1287 
Q 925 1225 550 1125 
Q 525 1375 400 1650 
Q 700 1725 950 2050 
Q 1200 2375 1475 2875 
Q 650 2825 425 2675 
Q 350 2950 200 3225 
Q 525 3450 825 3962 
Q 1125 4475 1375 5150 
Q 1625 4975 1950 4875 
z
M 2575 875 
Q 2550 600 2575 450 
Q 1950 325 1450 200 
Q 950 75 525 -75 
Q 450 200 250 475 
Q 950 550 1325 612 
Q 1700 675 2575 875 
z
M 4850 4025 
Q 4675 4300 4375 4675 
L 4775 4875 
Q 4875 4750 5275 4275 
Q 5025 4175 4850 4025 
z
" transform="scale(0.015625)"/>
      </defs>
      <use xlink:href="#SimHei-5bc6"/>
      <use xlink:href="#SimHei-5ea6" transform="translate(100 0)"/>
      <use xlink:href="#SimHei-66f2" transform="translate(200 0)"/>
      <use xlink:href="#SimHei-7ebf" transform="translate(300 0)"/>
     </g>
    </g>
    <g id="patch_10">
     <path d="M 54.285938 95.31875 
L 74.285938 95.31875 
L 74.285938 88.31875 
L 54.285938 88.31875 
z
" style="fill: #d3d3d3; fill-opacity: 0.2; stroke: #d3d3d3; stroke-opacity: 0.2; stroke-linejoin: miter"/>
    </g>
    <g id="text_22">
     <!-- 弱相关 (|r|&lt;0.3) -->
     <g transform="translate(82.285938 95.31875) scale(0.1 -0.1)">
      <use xlink:href="#SimHei-5f31"/>
      <use xlink:href="#SimHei-76f8" transform="translate(100 0)"/>
      <use xlink:href="#SimHei-5173" transform="translate(200 0)"/>
      <use xlink:href="#SimHei-20" transform="translate(300 0)"/>
      <use xlink:href="#SimHei-28" transform="translate(350 0)"/>
      <use xlink:href="#SimHei-7c" transform="translate(400 0)"/>
      <use xlink:href="#SimHei-72" transform="translate(450 0)"/>
      <use xlink:href="#SimHei-7c" transform="translate(500 0)"/>
      <use xlink:href="#SimHei-3c" transform="translate(550 0)"/>
      <use xlink:href="#SimHei-30" transform="translate(600 0)"/>
      <use xlink:href="#SimHei-2e" transform="translate(650 0)"/>
      <use xlink:href="#SimHei-33" transform="translate(700 0)"/>
      <use xlink:href="#SimHei-29" transform="translate(750 0)"/>
     </g>
    </g>
    <g id="patch_11">
     <path d="M 54.285938 110.240625 
L 74.285938 110.240625 
L 74.285938 103.240625 
L 54.285938 103.240625 
z
" style="fill: #ffa500; fill-opacity: 0.2; stroke: #ffa500; stroke-opacity: 0.2; stroke-linejoin: miter"/>
    </g>
    <g id="text_23">
     <!-- 中等相关 (0.3≤|r|&lt;0.8) -->
     <g transform="translate(82.285938 110.240625) scale(0.1 -0.1)">
      <use xlink:href="#SimHei-4e2d"/>
      <use xlink:href="#SimHei-7b49" transform="translate(100 0)"/>
      <use xlink:href="#SimHei-76f8" transform="translate(200 0)"/>
      <use xlink:href="#SimHei-5173" transform="translate(300 0)"/>
      <use xlink:href="#SimHei-20" transform="translate(400 0)"/>
      <use xlink:href="#SimHei-28" transform="translate(450 0)"/>
      <use xlink:href="#SimHei-30" transform="translate(500 0)"/>
      <use xlink:href="#SimHei-2e" transform="translate(550 0)"/>
      <use xlink:href="#SimHei-33" transform="translate(600 0)"/>
      <use xlink:href="#SimHei-2264" transform="translate(650 0)"/>
      <use xlink:href="#SimHei-7c" transform="translate(750 0)"/>
      <use xlink:href="#SimHei-72" transform="translate(800 0)"/>
      <use xlink:href="#SimHei-7c" transform="translate(850 0)"/>
      <use xlink:href="#SimHei-3c" transform="translate(900 0)"/>
      <use xlink:href="#SimHei-30" transform="translate(950 0)"/>
      <use xlink:href="#SimHei-2e" transform="translate(1000 0)"/>
      <use xlink:href="#SimHei-38" transform="translate(1050 0)"/>
      <use xlink:href="#SimHei-29" transform="translate(1100 0)"/>
     </g>
    </g>
    <g id="patch_12">
     <path d="M 54.285938 125.1625 
L 74.285938 125.1625 
L 74.285938 118.1625 
L 54.285938 118.1625 
z
" style="fill: #ff0000; fill-opacity: 0.2; stroke: #ff0000; stroke-opacity: 0.2; stroke-linejoin: miter"/>
    </g>
    <g id="text_24">
     <!-- 强相关 (|r|≥0.8) -->
     <g transform="translate(82.285938 125.1625) scale(0.1 -0.1)">
      <use xlink:href="#SimHei-5f3a"/>
      <use xlink:href="#SimHei-76f8" transform="translate(100 0)"/>
      <use xlink:href="#SimHei-5173" transform="translate(200 0)"/>
      <use xlink:href="#SimHei-20" transform="translate(300 0)"/>
      <use xlink:href="#SimHei-28" transform="translate(350 0)"/>
      <use xlink:href="#SimHei-7c" transform="translate(400 0)"/>
      <use xlink:href="#SimHei-72" transform="translate(450 0)"/>
      <use xlink:href="#SimHei-7c" transform="translate(500 0)"/>
      <use xlink:href="#SimHei-2265" transform="translate(550 0)"/>
      <use xlink:href="#SimHei-30" transform="translate(650 0)"/>
      <use xlink:href="#SimHei-2e" transform="translate(700 0)"/>
      <use xlink:href="#SimHei-38" transform="translate(750 0)"/>
      <use xlink:href="#SimHei-29" transform="translate(800 0)"/>
     </g>
    </g>
    <g id="line2d_37">
     <path d="M 54.285938 135.88125 
L 64.285938 135.88125 
L 74.285938 135.88125 
" style="fill: none; stroke-dasharray: 9.25,4; stroke-dashoffset: 0; stroke: #008000; stroke-width: 2.5"/>
    </g>
    <g id="text_25">
     <!-- 中位数: 0.292 -->
     <g transform="translate(82.285938 139.38125) scale(0.1 -0.1)">
      <defs>
       <path id="SimHei-4f4d" d="M 2125 4925 
Q 1950 4750 1625 3750 
L 1625 575 
Q 1625 -225 1650 -650 
L 1100 -650 
Q 1150 -200 1150 550 
L 1150 2950 
Q 775 2275 550 1950 
Q 375 2275 200 2425 
Q 525 2775 912 3575 
Q 1300 4375 1500 5200 
Q 1825 5000 2125 4925 
z
M 5375 3025 
Q 5275 2875 5100 2250 
Q 4925 1625 4600 300 
L 5450 300 
Q 5925 300 6100 325 
L 6100 -175 
Q 5875 -150 5450 -150 
L 2900 -150 
Q 2275 -150 2050 -175 
L 2050 325 
Q 2275 300 2850 300 
L 4075 300 
Q 4400 1400 4700 3175 
Q 5100 3075 5375 3025 
z
M 5250 4025 
Q 5700 4025 5925 4050 
L 5925 3575 
Q 5700 3600 5225 3600 
L 3000 3600 
Q 2650 3600 2275 3575 
L 2275 4050 
Q 2675 4025 3000 4025 
L 5250 4025 
z
M 3050 3050 
Q 3500 1775 3750 725 
Q 3450 625 3250 550 
Q 3125 1125 2962 1675 
Q 2800 2225 2550 2875 
Q 2800 2925 3050 3050 
z
M 3875 5200 
Q 4175 4675 4400 4300 
Q 4200 4250 3875 4075 
Q 3700 4525 3400 4950 
Q 3650 5050 3875 5200 
z
" transform="scale(0.015625)"/>
      </defs>
      <use xlink:href="#SimHei-4e2d"/>
      <use xlink:href="#SimHei-4f4d" transform="translate(100 0)"/>
      <use xlink:href="#SimHei-6570" transform="translate(200 0)"/>
      <use xlink:href="#SimHei-3a" transform="translate(300 0)"/>
      <use xlink:href="#SimHei-20" transform="translate(350 0)"/>
      <use xlink:href="#SimHei-30" transform="translate(400 0)"/>
      <use xlink:href="#SimHei-2e" transform="translate(450 0)"/>
      <use xlink:href="#SimHei-32" transform="translate(500 0)"/>
      <use xlink:href="#SimHei-39" transform="translate(550 0)"/>
      <use xlink:href="#SimHei-32" transform="translate(600 0)"/>
     </g>
    </g>
    <g id="line2d_38">
     <path d="M 54.285938 150.021875 
L 64.285938 150.021875 
L 74.285938 150.021875 
" style="fill: none; stroke-dasharray: 9.25,4; stroke-dashoffset: 0; stroke: #800080; stroke-width: 2.5"/>
    </g>
    <g id="text_26">
     <!-- 70%分位数: 0.519 -->
     <g transform="translate(82.285938 153.521875) scale(0.1 -0.1)">
      <defs>
       <path id="SimHei-37" d="M 850 150 
Q 1300 2050 2425 3925 
L 275 3925 
L 275 4375 
L 2950 4375 
L 2950 3950 
Q 1775 2050 1400 150 
L 850 150 
z
" transform="scale(0.015625)"/>
      </defs>
      <use xlink:href="#SimHei-37"/>
      <use xlink:href="#SimHei-30" transform="translate(50 0)"/>
      <use xlink:href="#SimHei-25" transform="translate(100 0)"/>
      <use xlink:href="#SimHei-5206" transform="translate(150 0)"/>
      <use xlink:href="#SimHei-4f4d" transform="translate(250 0)"/>
      <use xlink:href="#SimHei-6570" transform="translate(350 0)"/>
      <use xlink:href="#SimHei-3a" transform="translate(450 0)"/>
      <use xlink:href="#SimHei-20" transform="translate(500 0)"/>
      <use xlink:href="#SimHei-30" transform="translate(550 0)"/>
      <use xlink:href="#SimHei-2e" transform="translate(600 0)"/>
      <use xlink:href="#SimHei-35" transform="translate(650 0)"/>
      <use xlink:href="#SimHei-31" transform="translate(700 0)"/>
      <use xlink:href="#SimHei-39" transform="translate(750 0)"/>
     </g>
    </g>
   </g>
  </g>
 </g>
 <defs>
  <clipPath id="pb9f0f61fd9">
   <rect x="45.285938" y="48.975" width="652.6375" height="335.46475"/>
  </clipPath>
 </defs>
</svg>
